<?xml version="1.0" encoding="UTF-8"?>
<svg id="Layer_2" data-name="Layer 2" xmlns="http://www.w3.org/2000/svg" viewBox="0 0 224.46 44.34">
  <defs>
    <style>
      .cls-1 {
        fill: #202020;
      }
    </style>
  </defs>
  <g id="Layer_2-2" data-name="Layer 2">
    <path class="cls-1" d="M125.22,41.8c.23,0,.53,0,.82,0h-.82Z"/>
    <path class="cls-1" d="M136.12,44.33l33.28-.52c-4.44,.24,11.62,.17,4.61,.45,2.54-.04,14.43-.14,11.19-.26l-6.79,.02c17.55-.7,6.92-.97,36.02-1.51-18.06-.41-25.98-.03-35.55,.29-3.24,.04-5.96,.07-8.71,.1l-27.67,.98-6.36,.45h-.02Z"/>
    <rect width="224.46" height="36.54"/>
    <path class="cls-1" d="M51.24,42.64l11.98-.12c-5.89,.02-9.41,.06-11.98,.12Z"/>
    <path class="cls-1" d="M49.02,31.63l3.73-.21c-3.11,.09-4.07,.16-3.73,.21Z"/>
    <path d="M224.46,41.01v-4.17c-3.78-.02-7.45-.03-11.1-.04h0c.75,0,1.03,0,1.82-.02,4.45,0,7.37,.02,9.28,.04v-.17c-7.81,0-14.24-.09-17.99-.36,6.52-.13,12.43-.23,17.99-.3v-.85c-12.28-.01-24.23-.02-35.69-.01l35.69-3.83v-.84c-30.89,.25-12.82,1.68-22.31,1.82-9.31,.06-17.26,.44-25.3,.13l4.4-.24c-26.31,.23-8.21,.65-31.65,.58-18.9,.38,16.66,.09,4.58,.45-25.07-.13-15.47,1.19-54.43,.67,1.88-.2-4.35-.71,18.47-.8l-22.28-.44c26.32-.23,10.25-.16,37.18-.23,12.41-.62,9.47-1.01,20.91-1.54-10.16,.16-8.14,.65-23.3,.62-18.31-.15,2.88-.31,4.7-.51-24.27,.72-27.04-.62-48.69,.06,4.23,.71,.03,.69,15.59,1.14-15.4,.24-34.99-.23-33.53-.86l-3.15,.57c-3.61-.14-15.85-.14-16.64-.29l-5.2,.28c11.31,.43,20.39,.64,39.88,.42-7.91,.38,10.8,.96-14.52,1.09-10.93,0-1.32-.32-2.02-.49-19.76,.16-32.68,.09-43.03-.05-5.17-.09-9.71-.17-14.14-.24-1.11-.02-2.21-.04-3.31-.06-.88-.02-1.75-.04-2.64-.06-1.05-.04-2.11-.07-3.23-.11,.02-.96,.05-1.96,.07-3.02,0-.8,.02-1.62,.02-2.47,0-1.19,.01-2.41,.02-3.68,.01-5.08,0-10.85-.05-17.64,.07,3.21,.1,7.76,.11,13.12v13.52c3.28-.01,6.67-.03,10.03-.04,4.86-.03,9.68-.09,14.23-.18-4.55-.17-9.35-.2-14.2-.17-1.21,.01-2.43,.02-3.65,.03l-1.83,.02h-.89l-.38,.03c-1.05,.04-2.09,.07-3.11,.11-.02-.86-.05-1.7-.07-2.53,0-.55-.01-1.09-.02-1.63v-2.82c.04,1.34,.07,2.54,.1,3.59,.04,.45,.07,.84,.09,1.16,.06,.62,.12,.92,.17,.93,.06,0,.11-.29,.17-.88,.02-.28,.05-.64,.08-1.09v-.17c.01-.12,.02-.23,.02-.35,0-.32,.01-.66,.02-1.01,.01-.7,.03-1.47,.04-2.29l-.34-5.42c0-5.6-.02-14.35,.03-19.33h-.11c-.04,1.64-.08,3.82-.12,6.52-.05-2-.09-4.19-.14-6.52H0V36.01c1.88,.02,3.6,.03,5.14,.05l-5.14,.09v5.1c6.25-.04,12.96-.07,18.84-.11,7.1-.04,12.74,0,13.67,.2,7.65-.12,28.81-.27,7.25-.55l35.55-.29c-5.89,.87,27.55,1.04-7.65,1.76,.96,0,9.55-.08,23.7-.2-12.4,.62,5.87,.78,25.22,.82l4.59-.49c16.71,.27,26.71,.71,48.96,.49l52.07-1.85c.75,0,1.51-.01,2.26-.02Zm-169.02-5.65h0c-2.91,.4,1.89,.55,9.08,.63-2.42,.08-3.86,.17-4.11,.26-7.28-.02-14.14-.03-20.56-.05-5.76-.05-10.89-.11-9.34-.27,1.49-.63,25.89-.66,33.18-1.21,6.05-.18,34.62-.19,28.27,.25-19.97-.21-18.05,1.23-36.52,.39Zm46.16,6.71c-1.22,.04-2.19,.09-2.75,.15-4.2-.02-6.76,.02-7.46-.15,3.41-.03,7.14-.06,11.16-.09-.34,.03-.56,.05-.96,.09h.01Zm73.52-5.44l4.11-.45c5,.12,6.41,.3,7.75,.5-4.04-.02-7.99-.03-11.86-.05Z"/>
    <polygon class="cls-1" points="53.99 44.22 57.18 44.34 72.53 44.1 69.28 43.98 53.99 44.22"/>
  </g>
</svg>