<?xml version="1.0" encoding="UTF-8"?>
<svg id="Layer_2" data-name="Layer 2" xmlns="http://www.w3.org/2000/svg" viewBox="0 0 1618.43 45.07">
  <defs>
    <style>
      .cls-1 {
        fill: #202020;
      }
    </style>
  </defs>
  <g id="Layer_1-2" data-name="Layer 1">
    <g>
      <path class="cls-1" d="M1470.36,39.16l-.36,.05c.34-.02,.39-.04,.36-.05Z"/>
      <path class="cls-1" d="M1468.54,39.44l1.46-.22c-1.79,.11-8.64,.22-1.46,.22Z"/>
      <path class="cls-1" d="M125.22,42.01c.23,0,.53,0,.82,.01-.31,0-.62,0-.91,0h.09Z"/>
      <path class="cls-1" d="M1618.43,42.54c-20.45,.06-45.24,.12-77.73,.21l77.73-.2v-.02Z"/>
      <path class="cls-1" d="M1532.96,42.18l-.39,.07c.9-.04,1.19-.06,.39-.07Z"/>
      <path class="cls-1" d="M1516.25,42.09l-24.27,.71,37.84-.06,2.75-.5c-3.34,.13-16.61,.38-21.75,.19l5.44-.34Z"/>
      <path class="cls-1" d="M1463.8,43.23c19.54-.21,18.48-.8,7.82-1.07,17.94-.27,9.47,.63,21.83,.01-.41-.43-22.52-.18-27.6-.1l-2.04,1.16Z"/>
      <polygon class="cls-1" points="1319.63 42.92 1325.12 42.68 1311.58 42.61 1319.63 42.92"/>
      <path class="cls-1" d="M1325.12,42.68l13.44,.07c-.93-.18-1.85-.36-4.04-.48l-9.39,.42Z"/>
      <path class="cls-1" d="M1373.82,42.91c5.69,.03,11.98,.06,19.64,.09l-19.64-.09Z"/>
      <path class="cls-1" d="M1358.45,42.76l.46,.08,14.91,.07c-5.5-.05-10.42-.1-15.37-.15Z"/>
      <path class="cls-1" d="M1338.56,42.74c2.18,.41,4.74,.85,24.17,.73l-3.82-.64-20.35-.1Z"/>
      <g>
        <path class="cls-1" d="M396.77,34.44c6.65-.02,8.61-.22,9.57-.32l-74.86,.04c2.35,.22,23.91,.5,9.5,.63,6.43,.25,26,.03,28.84-.27l-5.43,.34c17.25-.44,29.03,.41,17.78,.68h1.45s47.77-1.7,47.77-1.7c-17.54-.09-13.51,.58-34.62,.61Z"/>
        <path class="cls-1" d="M442.55,33.43l14.96-.53c-5.99,.14-11.26,.33-14.96,.53Z"/>
        <path class="cls-1" d="M338.89,41.47s-.19,.05,.2,.09l6.72-.27h-.17c-2.47,.07-4.7,.13-6.75,.18Z"/>
        <path class="cls-1" d="M782.2,31.36c1.61-.01,2.99-.02,4.91-.04-1.79,.01-3.41,.03-4.91,.04Z"/>
        <path class="cls-1" d="M136.12,44.54l33.28-.52c-4.44,.24,11.62,.17,4.61,.45,2.54-.04,14.43-.14,11.19-.26l-6.79,.02c17.55-.7,6.92-.97,36.02-1.51-18.06-.41-25.98-.03-35.55,.29-3.24,.04-5.96,.07-8.71,.1l-27.67,.98-6.36,.45Z"/>
        <path class="cls-1" d="M437.06,33.88c.46-.13,2.38-.29,5.5-.45l-11.16,.4c1.59,.02,3.68,.04,5.67,.06Z"/>
        <path class="cls-1" d="M411.66,35.42l-28.04,.11-10.33,.37c10.73-.13,23.28-.29,38.37-.47Z"/>
        <path class="cls-1" d="M737.92,30.96c58.07-.12-14.27,.83,12.42,1.02,16.13-.1,21.81-.49,31.86-.62-46.06,.35,6.24-1.29-40.21-1.07,6.6-.71,33.5-.78,49.26-.59,17.84,.68-15.59,.5-19.63,1.17,18.64-.12,15.36-.24,23.27-.62,29.27,.15,60.56-.85,78.04,.09,21.19-.16,19.79-.48,31.98-.84,2.42-.73-31.51-.37-39.36-.95,1.63,.06,4.8,.18,3.88,.29l-18.32-.15c17.38,.25-2.42,.73-11.71,.79-6.76,.02-20.19,.05-18.35-.15l10.23-.16c-13.18-.23-29.07,.54-42.98,.15-.73-.16,4.54-.24,5.33-.34-15.59,.5-30.62,.48-53.7,.83l13.37-.73c-18.46,.8-60.25,.59-89.22,.17,3.22,.12,9,.21,5.53,.35-17.02,.18-29.87-.32-21.99-.7-16.62,.6-63.32-.49-85.98,.3l-104.14,3.7c3.9-.09,8.07-.17,12.38-.2,9.46,.63,14.57,.55-2.02,1.16,16.29-.34,10.06-.85,34.53-.88-9.6,.32-12.02,1.05,11.42,1.12,58.6-.65,97.43-2.46,152.16-3.4,2.02,.49,44.99,.34,65.87,.45-7.97,.53-23.47,.68-39.55,.79,10.09,.01,27.47,.04,40.36,.06l5.26-1.03Z"/>
        <path class="cls-1" d="M601.85,32.64c1.47,.03,2.98,.06,4.54,.09-.83-.04-2.18-.07-4.54-.09Z"/>
        <path class="cls-1" d="M687.4,31.92c-.2,.02-.13,.03-.2,.05,1.69-.01,3.37-.03,5.1-.04-1.73,0-3.68-.01-4.9-.01Z"/>
        <path class="cls-1" d="M450.79,34.98c-3.48,.12-6.05,.2-9.53,.32,2.14-.04,4.83-.08,7.42-.13,2.46-.07,3.64-.13,2.11-.19Z"/>
        <path class="cls-1" d="M439.07,34.13l1.86-.2c-1.49-.02-2.55-.03-3.87-.04-.41,.11,.03,.2,2.01,.24Z"/>
        <path class="cls-1" d="M959.83,35.33l5.57-.11c-3.35,0-4.8,.05-5.57,.11Z"/>
        <path class="cls-1" d="M802.61,31.77c-20.19,.05-2.41,.73-30.99,.74l8.39,.04c-20.5,.32-56.53,.18-80.89,.22,2.75-.29-14.77-.35-11.92-.8-16.65,.11-33.14,.21-41.72,.68-10.31-.15-25.98,.26-39.1,.08,5.54,.27-18.67,.93,13.25,.59-2.58,.04-.96,.1-3.51,.14,20.56,.38,28.8-.27,46.51-.29,10.59,.27-17.32,.44-7.32,.54,22.11-.26,69.4,.31,67.93-.71,16.09-.08,18.32,.15,23.12,.33,12.73-.54,36.35-.43,56.76-.36,10.2,.04,19.61,.06,26.44,0,6.84-.07,11.11-.23,11.05-.58-9.29,.06-24.44,.03-38.08,.33l.07-.95Z"/>
        <path class="cls-1" d="M484.7,34.9c1.24,0,2.9,0,3.93,.01-1.16,0-2.6,0-3.93-.01Z"/>
        <path class="cls-1" d="M229.84,30.96l8.45-.91c48.09-.23,65.48,.02,107.53-.03,3.21,.12-1.89,.2-4.48,.24,29.56-.11,73.79,.07,95.31-.35,9.41,0,34.1,.29,24.76,.55,4.58-.08,9.81-.16,15.07-.13,1.39,.32-11.78,.1-12.08,.36,4.17,.02,5.8,.08,6.76-.02-7.02,.28,7.28,1.1-25.46,1.09-12.68-.76,22.71-.09,15.23-.93-10.86,0-9.6,.32-10.53,.42-13.84-.02-13.48-.23-12.74-.42-5.31,.26-22.71-.1-30.04,.3-26.92,.07,1.46-.63-16.11-.61l-10.13,.85-29.23-.15c-42.31,.31,6.05,1.46-42.31,1.95,6.36-.44-13.04-1.18-35.55-1.35,13.47-.03,38.36-.59,55.75-.35-24.51-.66,33.74-.09,21.01-.84-12.11,.36-32.31,.42-48.06,.23l5.16-.08c-16.75-.09-29.43,.8-52.55,.47-11.49,.03-9.34-.21-7.32-.41-4.86,.07-9.46,.13-12.85,.17-1.7,0-3.09,.01-4.06,.02-.97,0-1.52-.03-1.53-.08Zm25.02-.18l15.37,.08c-3.65-.14-9.38-.13-15.37-.08Z"/>
        <path class="cls-1" d="M353.36,35.8c-.7-.16-23.84-.5-23.43-.07,6.87,.04,13.79,.09,20.74,.13l2.69-.06Z"/>
        <g>
          <rect x="0" y=".21" width="1618.42" height="36.54"/>
          <path class="cls-1" d="M51.24,42.85l11.98-.12c-5.89,.02-9.41,.06-11.98,.12Z"/>
          <path class="cls-1" d="M49.02,31.84l3.73-.21c-3.11,.09-4.07,.16-3.73,.21Z"/>
          <path class="cls-1" d="M68.72,43.07l-7.21,.55c-14.1-.13-34.01,.35-36.95-.03,23.03-.09,17.52-.52,26.68-.73l-21.96,.23-7.15-.41c-7.91,0-15.27,0-22.12,0v1.8c1.2,.02,2.53,.03,4.02,.04,1.17,.01,2.5,.02,4.04,.04,1.42,0,3.02,0,4.86,.02,3.67-.02,8.24-.04,14.02-.07l-6.96,.28,29.5-.11-9.7-.37,34.9-.45c21.45-.42-8.74-.47-5.96-.77Z"/>
          <path class="cls-1" d="M1618.43,35.46c-3.73-.03-7.35-.06-10.9-.09-7.54-.04-14.85-.02-22.59,.1-1.39-.33,19.57-.22,16.33-.34-39.2-.26-59.57,.75-99.06,.76,13.04-.46-8.72-.47-19.4-.74-32.38,.42-101.3,.53-150.37,.86,12.91-1.15-54.6-.02-58.6-.99-10.92,0-27.9,.17-29.1,.54,6.05-.18,20.85,.11,18.9,.31-15.97,.07-40.32,.11-42.52,.57l-19.73-.47c-1.19,.37-7.51,.81-18.41,.81-24.26-.92,2.66,.65-32.01,.15,7.88-.38,14.91-.67,17.77-.97-16.76-.09-14.47,.14-26.32,.23-3.9-.28,11.72-.79,24.5-.99l-21.55-.27c-20.76,.58-56.84,1.4-90.27,1.23,5.43-.34,16.28-.34,7.51-.81-14.37,.14-33.53,.78-52.54,.47,2.62-.04,1-.1,3.58-.14-33.34,.52-25.09-.13-55.3-.18,.48-.05,.58-.12,1.46-.17l-18.45,.35c-38.66,.86-43.1-.54-66.31-.88l5.13-.08c-14.54-.55-61.24,0-74.52-.23,16.45,.35,5.5,.35,17.54,.94,14.47-.14,10.07-.85,34.24-.62-3.11,.57-33.6,.78-39.89,1.22-13.52,.04-22.69-.86-24.01-1.19-33.69,.09-52.67-.22-93.98-.01-14.76,.4-26.05,1.62-60.56,.85l1.05-.11c-3.55,.19-16.62-.15-22.86,.11,11.95,.59-14.73,.4-.16,.95-20.21,.05-23.58-.76-25.59-1.25-14.28,.83-39.89-.42-70.68,.06,5.5-.34,39.13-.43,25.26-.82l-39.59,.96h17.61c-30.03,.63-38.48-.11-55.88-.36-3.42-.24,7.96-.34,16.53-.33-9.24-.03-23.99,.08-36.03,.27-9.1,.26-40.66,.59-53.33,1.04-1.69-.02-3.38-.03-5.1-.05,.49-.05,1.29-.09,2.32-.11-2.56,.03-4.63,.05-6.56,.07-5.31-.04-10.6-.08-15.92-.13l3.2-.11c-2.11,.03-4.16,.06-6.15,.09-5.47-.04-10.96-.08-16.46-.12l-8.47,.2,4.16,.02c-1.56,.63-21.32,1.11-44.75,1.04,1.58,0,13.8,.08,31.47,.19l-5.89,.21c-26.22-.12-50.88-.24-73.93-.34,8.45-.13,17.14-.22,27.45-.17-24.54-.66-62.51,.36-74.23-.49,37.72-.76,55.77-.35,95.54-.62,20.34,.64-25.58,.4-26.84,.76l22.52,.17c-3.02-.39,43.85-.25,32.22-1.1-49.37-.28-98.51-.39-141.14-.37l41.05-4.4c0-.06,.76-.15,2.82-.3-42.08,.05-20.26,1.7-30.49,1.86-9.31,.06-17.26,.44-25.3,.13l4.4-.24c-26.31,.23-8.21,.65-31.65,.58-18.9,.38,16.66,.09,4.58,.45-25.07-.13-15.47,1.19-54.43,.67,1.88-.2-4.35-.71,18.47-.8l-22.28-.44c26.32-.23,10.25-.16,37.18-.23,12.41-.62,9.47-1.01,20.91-1.54-10.16,.16-8.14,.65-23.3,.62-18.31-.15,2.88-.31,4.7-.51-24.27,.72-27.04-.62-48.69,.06,4.23,.71,.03,.69,15.59,1.14-15.4,.24-34.99-.23-33.53-.86l-3.15,.57c-3.61-.14-15.85-.14-16.64-.29l-5.2,.28c11.31,.43,20.39,.64,39.88,.42-7.91,.38,10.8,.96-14.52,1.09-10.93,0-1.32-.32-2.02-.49-19.76,.16-32.68,.09-43.03-.05-5.17-.09-9.71-.17-14.14-.24-1.11-.02-2.21-.04-3.31-.06-.88-.02-1.75-.04-2.64-.06-1.05-.04-2.11-.07-3.23-.11,.02-.96,.05-1.96,.07-3.02,0-.8,.02-1.62,.02-2.47,0-1.19,.01-2.41,.02-3.68,.01-5.08,0-10.85-.05-17.64,.07,3.21,.1,7.76,.11,13.12,0,4.03,0,8.66,0,13.52,3.28-.01,6.67-.03,10.03-.04,4.86-.03,9.68-.09,14.23-.18-4.55-.17-9.35-.2-14.2-.17-1.21,.01-2.43,.02-3.65,.03l-1.83,.02h-.89s-.38,.03-.38,.03c-1.05,.04-2.09,.07-3.11,.11-.02-.86-.05-1.7-.07-2.53,0-.55-.01-1.09-.02-1.63,0-.95,0-1.9,0-2.82,.04,1.34,.07,2.54,.1,3.59,.04,.45,.07,.84,.09,1.16,.06,.62,.12,.92,.17,.93,.06,0,.11-.29,.17-.88,.02-.28,.05-.64,.08-1.09v-.17c.01-.12,.02-.23,.02-.35,0-.32,.01-.66,.02-1.01,.01-.7,.03-1.47,.04-2.29l-.34-5.42c0-5.6-.02-14.35,.03-19.33h-.11c-.04,1.64-.08,3.82-.12,6.52-.05-2-.09-4.19-.14-6.52H0S0,36.22,0,36.22c1.88,.02,3.6,.03,5.14,.05L0,36.36v2.16c.12,0,.25,0,.37,0-.12,0-.25,0-.37,0v2.94c6.25-.04,12.96-.07,18.84-.11,7.1-.04,12.74-.01,13.67,.2,7.65-.12,28.81-.27,7.25-.55l35.55-.29c-5.89,.87,27.55,1.04-7.65,1.76,.96,0,9.55-.08,23.7-.2-12.4,.62,5.87,.78,25.22,.82l4.59-.49c16.71,.27,26.71,.71,48.96,.49l52.07-1.85c5.03-.04,10.16-.08,15.29-.12,6.79,.28,29.7,.06,20.69,.64,2.33,.23-5.36,.34-15.39,.24-1.53-.06,.96-.1-.64-.16-2.84,.3-4.04,.67,8.14,1-12.45-.06-14.06-.12-22.7,.1l12.54,.07c-9.3,.06-21.06,.26-30.45,.5-4.69,.12-8.79,.25-11.69,.38-2.9,.13-4.61,.25-4.51,.36,5.7-.61,17.62-.01,27.65,.09-7.69,.12-23.99,.46-11.5,.52,4.44-.24,38.44-.6,14.31-.83,10.23-.16,23.96-.46,35.54-.29-13.64,.3-4.67,.5-8.47,.91,12.12-.36,11.72-.79,13.68-.99,34.67,.5,48.73,1.58,87.77,1.15,5.13-.08-23.67,.2-19.96-.21,28.53-.7,37.12,.72,61.84,.43l-6.95-.67c7.68-.12,26.35-.23,35.55-.29,2.35,.23,28.74,.68,9.17,.9,42.43,.38,37.53-1.45,86.15-1.25-22.49-.17-25.08-.13-42.76-.12,18.87-.38,2.89-.3,4.97-.77,11.33,.43,47.87,.04,22.98,.6,15.06,.02,45.25,.08,52.24-.21l-13.21-.23c21.82,0,43.27-.41,52.18-.89-27.05,.07-26.16,.92-60.56,.85-37.28-.46,8.91-.48-15.59-1.14l-26.55,.5,12.52,.06c-4.04,.67-41.09-.06-37.74,.76-26.98-.62-34.99-.24-64.65-.81-7.02,.28,3.87,.29,12.25,.33-15.04-.03-15.87,.77-35.55,.29-9.67-.1-3.54,.52,12.87,.55-14.48-.01-28.46,.11-44.53,.03l17.05,.51h-17.62s14.83,.3,14.83,.3c-33.67,.09-72.27,0-90.01-.68,29.1-.54,77.6-.34,94.44-1.21-6.46-.25-23.3,.62-31.77-.11l-8.87,.48c-10.26,.16-33.97,.36-36.03-.13,28.08-.36,35.43-.79,49.7-1.21,.1-.1,2.67-.16,6.75-.18,.17,0,.27,0,.43-.01h-.26c8.33-.04,21.97,.01,29.76-.11,9.89,.1,3.06,.39,2.01,.49,33.83,.6,57.27-.97,93-.58,.36,.43,28.02,.52,19.4,.74,20.86,.11,32.35-.42,46.05-.71,3.01,.39,31.82,.11,21.32,.53l19.11-.64c13.17,.23,40.45-.11,45.03,.34,14.43-.14,4.03-.67,23.99-.46-.92,.1,.67,.16-3.51,.14,9,.21,30.92,.22,40.42-.11-14.08-.13-3.24-.12-19.96-.21,.09-.07,1.34-.14,3.44-.21,2.11-.07,5.08-.13,8.64-.17,7.11-.09,16.55-.11,26.06,.05-25.85,.66,20.38,.64,8.26,1,41.07,.06,64.64-.83,98.88-1.45,40.42-.11,90.57,.15,122.23-.43l-4.17-.02,18.86-.38c10.91,0,.17,.69,17.08,.51-5.69,.61-29.49,.11-46.75,.55,29.66,.58-27.47,.6-7.79,1.07,11.31-1.21,63.25-.2,89.07-.86,25.09,.13-11.48,.52,.99,.59l8.01-.38c9.93,.11,13.22,.23,12.95,.49,26.64,.19,57.15-.02,79.51-.54-28.86,.27,9.77-.59-18.73-.57,8.64-.22,27.2-.34,44.82-.35-16.94,.18,22.69,.86-14.92,.67,5.25,.61,18.58-.12,35.34-.03-8.6,.22-27.6,.6-25.91,.66,25.2-.82,81.01,.47,90.78-.11,18.27-.54,46.41-.98,68.75-1.5,22.25,.43,46.92,.14,71.97,.27l-4.47,.24c14.17,.13,36.22-.13,57.1-.02l4.67,.45c14.37-.14,41.29-.21,63.21-.2,.23-.26-20-.21-10.43-.53-10.93,0-20.19,.05-16.3,.34-10.92,0-11.36-.43-20.33-.64l42.28-.31c3.39,.03,4.6,.07,4.8,.11l3.11-.49c10.96,0,14.13,.13,12.29,.33,23.76-.19,32.01-.84,57.07-.71-10.6,.42-17.58,.7-35.26,.72h28.6c-13.07,.45-62.54,.35-54.06,1.09,31.42-.31,77.24-.77,104.72-1.37,5.67,.22,12.41,.24,19.94,.21,3.71-.02,7.62-.04,11.66-.07v-3.24Zm-1562.99,.12c-2.91,.39,1.89,.54,9.08,.62-2.42,.08-3.86,.17-4.11,.26-7.28-.02-14.14-.03-20.56-.05-5.76-.05-10.89-.11-9.34-.27,1.49-.63,25.89-.66,33.18-1.21,6.05-.18,34.62-.19,28.27,.25-19.97-.21-18.05,1.23-36.52,.39Zm46.16,6.7c-1.22,.04-2.19,.09-2.75,.15-4.2-.02-6.76,.02-7.46-.15,3.41-.03,7.14-.06,11.16-.09-.34,.03-.56,.05-.96,.09Zm73.43-5.43l4.2-.46c5,.12,6.41,.3,7.75,.5-4.07-.02-8.05-.03-11.95-.05Zm38.33,.16c.75,0,1.03,0,1.82-.02,6,0,9.23,.03,10.93,.07-4.38-.02-8.57-.04-12.75-.05Z"/>
          <polygon class="cls-1" points="53.99 44.43 57.18 44.55 72.53 44.31 69.28 44.19 53.99 44.43"/>
        </g>
        <path class="cls-1" d="M695.05,43.31c-5.44,.34-32.05,.15-33.44-.17,3.58-.14,18-.28,8.94-.49l-21.05,.84c-28.01-.52,21.29-1.11,35.12-1.41-28.53-.1-36.99,.45-67.34,.46,8.95,.07,14.61,.28,19.34,.46,1.03,.59-27.25,.34-47.47,.39,12.87,.25,5.43,.47-3.95,.71-1.68,.02-2.81,.05-3.6,.09-1.09,.03-2.12,.06-3.18,.08h2.42c-.17,.07,.36,.14,2.11,.25,16.96-.18,29.94,.31,40.86,.32-10.79-.96,37.19-.23,50.92-.53l15.85-.1h5.93c1.19,.1-.49,.23-9.53,.43,7.54-.19,32.71-.13,30.39-.44l57.44-.03c1.79,.04,3.58,.09,4.9,.16,1.99-.06,2.32-.11,2.06-.16l250.24-.13c-12.34-.14-23.03-.25-35.75-.39,19.11-.64-20.87-.11-15.27-.71,8.59-.22,21.15-.16,28.64-.01,2.79-.31-7.88-.57-6.65-.94-31.56-.38-36.39,1.08-67.25,.87,1.22-.37,10.76-.69-9.44-.63l5.13-.08c-32.34,.42-25.2-.82-45.55,.19l.53-.53c-14.67,.4-43.21,.41-59.3,.49l.96-.1c-45.12,.61-25.33,.13-75.99,.4l23.32-.62c-17.48-.25-21.42,.42-33.97,.35,.9-.1-2.01-.49,9.84-.59l-61.48,.95c-14.67,.4,2.98,.39,5.26,.61Z"/>
        <path class="cls-1" d="M617.28,42.54c-3.25-.03-6.95-.04-11.31-.02,4.21,0,7.84,.01,11.31,.02Z"/>
        <path class="cls-1" d="M1049.58,44.04h-17.58c5.45,.04,11.12,.05,17.58,0Z"/>
        <path class="cls-1" d="M529.16,43.72c10.66,.27-7.98,.38-9.84,.59l38.18-.02c-.17-.2,3.61-.43,2.84-.62l-31.18,.05Z"/>
        <path class="cls-1" d="M568.55,44.66c1.29-.14,5.33-.27,9.86-.39h-20.91c.07,.09,.68,.16,2.36,.22s4.4,.12,8.69,.17Z"/>
        <polygon class="cls-1" points="564.51 33.82 571.27 33.8 581.49 33.65 564.51 33.82"/>
        <path class="cls-1" d="M670.22,34.69c-8.07-.31-23.39-.07-28.51,.01,17.65-.01,10,.1,28.51-.01Z"/>
        <polygon class="cls-1" points="648.4 31.4 665.42 31.22 663.83 31.16 648.4 31.4"/>
        <path class="cls-1" d="M1179.52,41.93c2.79-.01,5.5-.02,8.31-.04-3.81,.02-6.29,.03-8.31,.04Z"/>
        <path class="cls-1" d="M1033.53,42.47c40.58,.58-26.59,.5-13.84,1.25l22.09-.26-1.88,.2,26.94-.07c-5.53-.35-9.68-.37-8.48-.73,35.96,.13,11.34,.43,37.72,.88l40.19-.08-3.25,.11c3.39,0,4.88-.06,6.04-.12l135.44-.26c24.64-.3-13.63-.65,4.55-1.2-28.56,0-71-.37-73.43,.36,.96-.1,2.85-.3-2.94-.39l-16.52,.6,15.75,.19c-16.61,.6-70.25,.48-79.95,.11,30.5-.21,15.2-.93,57.69-.55-1.91-.18-9.69-.51-.12-.61-49.79,.22-94.41-.1-145.99,.54Z"/>
        <polygon class="cls-1" points="772.15 31.99 787.52 31.75 785.89 31.69 770.53 31.92 772.15 31.99"/>
        <path class="cls-1" d="M860.81,32.34c3.8-.09,6.68-.17,9.29-.23-4,.05-7.18,.12-9.29,.23Z"/>
        <path class="cls-1" d="M926.73,29.5c18.07,.41-24.94,.56,8.54,.73,2.95,.39-12.74,.89-28.5,.7,1.25-.36,15.35-.24,5.67-.61-10.47,.42-14.45,.14-10.8,.69-17.61,.35-19.57,.74-31.52,1.1,21.29-.25,65.98,.31,93-.41,14.89-.66,5.86-1.56,5.92-2.52-2.24-.22-40.85-.32-42.3,.31Z"/>
        <path class="cls-1" d="M898.28,28.56c-8.36-.04-10.92,0-16.05,.07,1.38,.33,9.29-.06,16.05-.07Z"/>
        <path class="cls-1" d="M1090.53,35.69c1.6-.14,16.73-.31,13.48-.54l-22.94,.18c5.38,.02,7.28,.19,9.46,.36Z"/>
        <path class="cls-1" d="M1071,35.4l10.06-.08c-2.52-.01-5.63,0-10.06,.08Z"/>
        <path class="cls-1" d="M1091.62,35.77c-.36-.03-.69-.05-1.09-.08-.32,.03-.26,.06,1.09,.08Z"/>
      </g>
      <path class="cls-1" d="M1429.5,43.15c-.32,.26,9.9,.11,15.03,.03-4.18-.02-10.04-.11-15.03-.03Z"/>
    </g>
  </g>
</svg>