<?xml version="1.0" encoding="UTF-8"?><svg id="Layer_2" xmlns="http://www.w3.org/2000/svg" width="434.3" height="8.38" viewBox="0 0 434.3 8.38"><g id="Layer_1-2"><g><path d="M375.63,2.64s.07-.07,.08-.13c-.07,.05-.09,.1-.08,.13Z" fill="#fff"/><path d="M341.41,1.8l.4-.06c-.26,0-.36,.03-.4,.06Z" fill="#fff"/><path d="M396.14,2.99s-.03,.02-.05,.03c.32,0,.74,.01,1.44,.02l-1.39-.05Z" fill="#fff"/><path d="M268.41,.85h.46c-.21,0-.34-.02-.46,0Z" fill="#fff"/><path d="M311.67,1.48c-.13,.05-.36,.07-.58,.09,.28,0,.5,0,.58-.09Z" fill="#fff"/><path d="M406.98,5.82l-.58-.19c.01,.08,.22,.17,.58,.19Z" fill="#fff"/><path d="M427.78,5.05s-.02-.03-.05-.04c-.03,.02,0,.03,.05,.04Z" fill="#fff"/><path d="M419.65,4.28c-.18,.02-.38,.05-.58,.08,.25,0,.56,0,.58-.08Z" fill="#fff"/><path d="M418.79,4.41c.09-.02,.18-.03,.28-.05-.16,0-.28,.01-.28,.05Z" fill="#fff"/><path d="M3.26,1.79c-.6,0-1.11,.14-1.65,.26l1.65-.26Z" fill="#fff"/><path d="M202.31,.74l.13-.08c-.12,.03-.14,.05-.13,.08Z" fill="#fff"/><path d="M2.51,3.44l-.42-.04c.15,.03,.29,.04,.42,.04Z" fill="#fff"/><path d="M395.96,6.33c-.6,.19-1.83-.04-1.82,.14,.64-.03,1.54,.11,1.82-.14Z" fill="#fff"/><path d="M188.34,7.78h-.4c.19,.01,.31,0,.4,0Z" fill="#fff"/><path d="M2.51,3.44l.49,.04s-.1-.06-.15-.09c-.11,.03-.22,.04-.34,.05Z" fill="#fff"/><path d="M133.48,.66h.02s.09-.02,.14-.03l-.16,.03Z" fill="#fff"/><path d="M129.84,.35c.26-.02,.5-.04,.78-.06-.41-.02-.63,.01-.78,.06Z" fill="#fff"/><path d="M1.61,2.04l-.94,.15c.34-.02,.64-.08,.94-.15Z" fill="#fff"/><path d="M90.48,.63c.13,0,.25-.01,.36-.02-.16,0-.27,0-.36,.02Z" fill="#fff"/><path d="M314.45,1.59c.09,.02,.21,.03,.32,.04,.03-.04,.01-.07-.32-.04Z" fill="#fff"/><polygon points="287.26 6.56 287.24 6.56 287.24 6.56 287.26 6.56" fill="#fff"/><path d="M288.7,6.33c-.45-.04-1.1,.09-1.45,.23,.46,0,.89-.04,1.45-.23Z" fill="#fff"/><path d="M284.14,6.46c.06,0,.1,.01,.17,.02-.06-.01-.11-.02-.17-.02Z" fill="#fff"/><path d="M313.35,6.83s0-.01,0-.02c0,0-.01,.01-.02,.02h.02Z" fill="#fff"/><path d="M307.57,6.87c-.1-.04-.24-.06-.4-.08,.1,.04,.23,.07,.4,.08Z" fill="#fff"/><path d="M269.73,6.99s0,0,0,0c-.01,0-.02,0-.03,0,.01,0,.02,0,.02,0Z" fill="#fff"/><path d="M215.21,8.37c5.47-.11,12.56-.49,17.99-.38,1.18-.39,2.9-.4,4.63-.48l.18,.51,1.44-.16c.59,.15-1.11,.1-.07,.29l.54-.32c.11,.18,3.71,.12,1.28,.49h5.61c1.24,.02,.72-.42,2.09-.3,.28,.15-.49,.1-.38,.29,4.11,.38,4.75-.99,8.59-.76l-.33,.07c.65-.14,1.89-.12,1.91-.19-.49-.52-.69,.28-1.86-.02,.1-.43,1.46-.23,1.38-.56,.9,.16,1.43-.09,2.21-.12,1.33,.27,3.25,.08,4.26,.42,.65-.14,1.38-.56,2.79-.58,1.01,.34-.24,.32,1.13,.45l.22-.25c1.12,.04,.95,.11,.91,.23,1.2,.01,1-.35,2.51-.18l-.84,.24c1.12-.1,1.57-.05,3.12-.03-.03,.14-.66,.13-1.11,.09,.84,.37,1.44-.16,1.9-.12-.13-.11-1.21-.16-.68-.41,.77,.05,1.64-.34,2.19-.04l-.84,.24c1.61-.2,.86-.31,2.7-.22-.1,.02-.05,.08-.09,.13,1.17-.32,2.69-.03,4.42,0l-.33,.07c.7-.09,1.08-.31,1.45-.29-.98-.15-.71-.22-.8-.46,1.3,.42,1.98-.48,4.11-.23-.03,.14-.55,.32-1.13,.17-.73,.43-.82,.79-2.11,.99,.8-.1,1.75-.16,1.55,.02l.25-.4c.49-.01,.87,.01,1.24,.01,.21-.25-.99-.41,.14-.57,1.27-.13,.68,.41,.87,.23,1.75-.16,.73-.43,2.41-.29-.17,.03-.5,.1-.64,.06,1.21,.16,2.97-.07,3.32,.41-.18,.11-.21,.25-.67,.21l.02-.07c-1.33,.35,1.11-.09,.69,.34-.09-.26,1.61-.2,2.37-.15l-.24-.29c2.55-.87-.14,.58,2.38,.47,1.6-.2-.6-.08,.38-.29,1.08,.05,1.48,.31,3.07,.18,.44,.12,1.34,.27,1.41,.6,.96-.13,2.92,.15,3.47-.17-1.64-.28-1.64,.34-3.56-.08l.54-.32c1.33,.02,3.03-.14,3.95-.03-.19-.06-.27-.14-.15-.21,1.89-.12,2.44-.44,4.28-.34,.24,.29-.84,.24-1.62,.27,1.19,.23,1.24,.02,3.09,.11,.1,.26-1.24-.02-1.45,.23l2.04-.08s0,.03,0,.05c.3-.43,1.56,.04,2.81-.09,2.96,0,3.41-.57,5.05-.91,.44,.12,.57,.22,.38,.33-.73-.19-.6-.04-.85,.07,1-.04,2.19,.42,1.63,.59,1.59-.12-.57-.23,.4-.36l2.17,.03c-.26-.22-1.02-.27,.1-.43,.95-.06,1.41-.02,2.65,0-.18,.11,.39,.33-.54,.32,.6,.08,1.53,.09,1.9-.12-1.36-.2,2.22-.19,1.21-.53l1.36,.2c-.31,0-.34,.14-.8,.1,.38,.33,1.11-.09,1.58-.13,.48,.06,1.72,.09,1.82,.22,.43-.09,1.48-.02,1.67,.15,.64-.07,.05-.22,.24-.32l2.17,.03c.12,.18,.3,.69-.03,.76,.82-.17,.29-.54,1.53-.52-.71,.35,1.64,.27,.61,.7,.71,.26,2.74,.25,3.85,.16,.69-.28-1.21-.16-1.14-.45,3.13-.1,3.33-.9,5.63-.76l-.6-.08c1.44-.16,1.27-.13,2.11-.37-.4,.36,1.63,.96,3.99,.89,.2-.18-1.32-.34-.93-.63l1.57-.05c.11,.03-.06,.09-.26,.13,1.4-.13,2.61,.47,3.02,.05l1.43,.53-.56-.22c.19-.18,1.77-.23,2.1-.3,1.61-.2,2.19-.04,3.07,.19-.28-.15-.98-.48,.29-.54-.01,.58,2.65,.22,2.61,.52,.51,0,1.42,.17,1.48-.07l-.09,.36c.12-.51,1.98-.48,3.41-.57-.32,.69,1.57-.05,2.2,.57,.27-.47,2.53-.18,2.78-.58,1.1-.02,.99,.41,1.27,.56l.51-.17c.55,.22,2.61,.25,3.84,.4l1.14-.41,.42,.19c.18-.1,1.13-.17,.54-.32l.62,.02c.05-.45,.86-.12,2.1-.31,.29,.07,.21,.18-.06,.24,.62,0,.35,.23,.69,.39-.44-.12,2.22-.8,.56-1.01-.11-.18,.85-.32,1.46-.24l.37,.4,.73-.43c.95-.06,1.35,.2,2.12,.25-.78,.02-1.74,.78,.28,.77-1.07,.05-1.59,.28-2.14,.36,.42,.02,.63,.06-.02,.23,1.58-.12,.53-.25,2.1-.3-.09,.36,.35,.48,1.72,.6l-1.02-.27s.12-.08,.2-.1c-.39-.04-.5-.1-.58-.23,.31,0,1.82-.45,2.08-.23-1.58-.56,2.75-.43,1.74-.77,.18-.1,1.27-.13,1.39,.06-1.31,.27,.99,.41,.77,.66,.49-.1-1.03-.27-.37-.4,.78-.02,1.35,.2,1.79,.31l-.33,.07,1.21,.16c.2-.18-1.17-.31-.06-.4,.29,.08,1.41-.02,1.37,.13-.53,.25-.14,.58-1.09,.64,.79-.03,3.29-.07,2.28-.41h.94c-.59-.14-2.24-.42-.35-.46l-.02,.07,1.31-.27,.57,.19c-.02-.09,.19-.18,.67-.17,.13,.11,.58,.15,.55,.3,1.41-.02,1.29-.2,1.48-.31,.79-.03,1.08,.05,.71,.26,1.08,.05,2.96,0,3.69,.19,1.44-.16-.3-.08,.55-.32,1.25,.63,4.76,.24,7.11,.17-.64-.55,.64-.06,1.07-.56-.51,.17,2.23,.43,.17,.58l1.26-.06c.86,.3-2.08,.23-.78,.64,1.41-.02,2.33-.62,3.99-.42-.56,.39,1.28-.13,.86,.3-.34,.14-.8,.1-1.28,.13l.29,.08c3.09,.11,.89-.46,2.51-.73,1.88-.05,1.48,.31,1.59,.49,.29,.08,1.24,.02,1.73-.09-1.15,.24-2.12-.25-1.59-.49,.83,.45,2.79,.04,3.3-.14-2.69-.47-1.86-.02-4.39-.53-.35,.14-.29,.54-1.8,.38,.95-.2-.06-.22-.33-.29,.29,.23-1.05,.1-1.51,.19-.42-.19,.91-.53-.63-.62l-.29,.54c-.6-.08,.26-.4-1.02-.27,.69-.28-.21-.44,1.52-.52-2.06-.46-3.17,.25-4.77,.44,.16-.03,.18-.11,.34-.14-.34,.14-.97,.13-1.44,.16-1.06-.12,.84-.24,.56-.39h-1.71s-.04-.01-.04-.02c-.45,.07-.88,.12-1.04-.01,.51-.17,.71-.35,1.05-.49l-1.8,.38c.2-.18-1.48-.31-.2-.44l-2.66,.07-.22-.37c-.64,.06-.66,.14,.11,.18-.91-.08-4.04,.64-3.56-.08-2.09,.3-2.85,.18-5.38,.36,1.95-.34-2.23-.43-.17-.58-1.21-.16-1.46,.23-2.41,.3-.89-.16-.49-.51,.47-.65l-1.13,.17,.02-.07-.99,.21c-1.04-.2-.22-.37-1.3-.42l-.23,.32-.73-.19c.27,.15-.36,.21-1.15,.24l.02-.07-.95,.06c.94-.2-.87-.07-.44-.3-.81-.02-.83-.01-2.3,.05l.26,.22c-1.92,.19-.08-.33-1.63-.35l.1,.25c-2.23-.43-3.79,.24-5.44-.04,.95-.06,.71-.35,.69-.28-1.42,.09-3.74,.02-5.21,.33-.54-.37-.66-.48-2.18-.64-1.1,.02-1.26,.06-1.62,.27-1.06-.14-3.06,.07-3.11-.2-.25,.21-.96-.04-1.54,.14l-.12-.11,.09,.25c-1.89-.57-3.19,.32-5.1-.18l.33-.07-.8,.1c-.13-.11,.2-.18,.24-.32l-3.73-.05,.73,.19c-.78,.03-1.31,.27-2.21,.12,1.49-.38-1.24-.02-1.48-.31l.8-.1q-1.09,.02-1,.28c-1.42,.09-.97-.49-2.28-.21h.93c.27,.16-.39,.37-1.02,.36-.15-.04-.59-.15-.11-.18-1.12,.1-2.79-.04-3.28,.07-.6-.08-.41-.26-.08-.33-2.39,.22-1.08-.05-3.47,.17l.04-.14-.82,.17-1.17-.31,.42,.19c-.78,.03-1.27,.13-2.19,.04l.37-.21c-2.21,.12-2.56-.36-4.66-.06-.14-.04,.18-.11,.35-.14-1.95,.34-1.47-.38-3.43,.03,.12-.07-.09-.16-.02-.22l-.89,.14,.07-.29-.73,.43-.55-.3-.35,.14c-.95-.55-2.3-.14-3.6-.55l.22,.37c-3.29,.75-7.52-.43-11.5-.08l.07-.29-1.64,.34c-.88-.23,.53-.25,.25-.4-1.76,.16-.73,.43-2.77,.51-1.04-.2,.36-.21,.86-.32-1.91,.14-4.73,.3-6.09,.14-.03,.04-.11,.09-.04,.11-1.28,.13-2.96,0-4.36,.02,.03-.13,.38-.15,.73-.18-.51-.02-1.2-.11-1.63,.03l.53-.25c-1.08-.05-3.16,.18-3.4-.12,.13,.11,.08,.33-.86,.32-.51-.44-2.54,.18-4.03-.05,.18-.1,1.27-.13,.97-.13-.75-.12-1.42,.09-2.08,.23l.2-.18-3.49,.24c-.52-.44-3.29,.06-3.05-.26-1.24-.02,1.04,.2-.53,.25-.42-.18-1.42,.09-1.36-.2l.17-.03-1.1,.02,.69-.28c-.95,.06-1.64,.34-1.69,.56-.9-.16-2.17-.03-2.58-.29l.33-.07c-2.52,.11-4.17-.78-6.15-.3-.15-.04-.13-.11,.18-.11l-1.56-.02,.37-.21-2.58,.33,.03-.14c-1.7-.06-4.36,.02-6.55,.06l.33-.07c-2.39,.22-2.3-.14-4.05,.02,.06-.04,.12-.05,.18-.06h-1.57s.35-.13,.35-.13c-1.16,.31-3.33-.41-2.61-.14-.66,.14-1.79,.3-1.99,.48-1.71,.02-.42-.19-1.48-.31-1.24-.02-1.46,.23-3.14,.1l.03-.14c-.79,.03-1.27,.13-2.37,.15l.33-.07c-1.79,.3-2.23-.43-3.63,.21-.75-.12-2.17-.03-2.1-.32-2.22,.19-3.96,.27-6.16,.39-.35-.48-.47,.03-1.81-.24l.1,.25c-3.12,.03-6.71-.6-10.15-.49l-.1-.26-.69,.28c-3.71-.12-8.51-.22-11.46-.22-.97,.13-2.44,.44-3.98,.35l.16-.04c-2.68,.15-5.51,.25-8.43,.11,.18-.11-.11-.18,.22-.25-.69,.28-1.71,.01-2.34,0l.73,.19c-.83,.24-2.02,0-2.45-.18l-1.32,.27c-.09-.03-.22-.07-.24-.11l-.23,.13-.7-.34c-.33,.07-2.06,.15-2.61,.48-.13-.11-1.35-.2-.4-.26l-4.8-.1,.75,.12c.09,.25-1.35,.42-2.09,.3,.98-.21,.08-.36-.34-.55-.65,.14,.57,.23,.22,.36-.82,.17-2.56,.26-2.99,.14l.49-.1c-1.11,.09-1.63-.35-2.72-.33-.99,.2-1.71,.02-1.51,.45-1.43,.09-.55-.3-1.01-.34-.67,.21-2.66,.07-2.92-.15-.78,.64-3.84-.23-4.13,.31l-1.17-.3c-.04,.14-.27,.47-1.22,.53-.89-.16-.68-.41-.95-.56l-.6,.54c-5.15-.58-11.94-.19-17.58-.67-2.52,.11-5.69,.36-8.63,.29l.33-.07-2.92-.15,2.12,.25c-.64,.06-1.14,.17-1.75,.16-3.21-.22-7.49-.5-11.44-.22-2.56,.62-1.7-.55-4.15-.1,.21-.06,.29-.14,.48-.21-2.64,.21-4.07,.31-6.71,.67,.3-.61-1.72,.01-1.48-.31l-.22,.25c-.59-.15-1.97-.21-1.77-.39l-1.17,.31-.1-.26c-1.54-.02-4.86,.19-5.68-.33-3.83,.38-9.87,.27-14.67,.17-.68,.21-2.08,.23-3.17,.25l-1.17-.3c-1.11,.09-2.3,.48-3.34,.28,0-.04,.05-.06,.12-.08-1.13,.06-2.21-.1-3.27,.18-1.24-.02-2.45-.18-2.07-.46-.12,.51-2.63-.07-2.63-.07C82.52,.28,18.81-.96,3.26,1.79c-.52,.25-1.97,.41-1.41,.71C.73,2.59,.22,2.15,0,2.4c1.52,.17-.47,.65,1.01,.96l-.95,.06c-.19,.18,1.3-.2,1.06,.12l.27-.47c.77,.07,1.19,.17,1.47,.33,.73-.18,1.19-.81,2.92-.54l-.48,.03c1.41-.02,.86,.3,1.16,.38h-.31s1.19,.23,1.19,.23c-.9-.16-2.39,.22-1.61,.19,1.68,.13-.44-.11,.83-.17,.78-.02,.56,.22,.53,.37l1.41-.02c-.05,.22-.93-.01-.36,.21l1.77-.23c.33,.55,1.93-.26,2.74,.25-1.27,.13,.11,.18-.09,.36l3.12-.03c.3,.08-.82,.17-.35,.14,.59,.15,.97-.13,1.28-.13,.27,.15,2.33,0,2.24,.36,2.12,.24,.89-.46,2.86-.25,.26,.22-1.57,.05-.69,.28l2.05-.08c-.19,.11-.4,.36-1.17,.31,5.53,.29,8.52,1.45,13.57,1.16,.71,.26-.51,.18-1.02,.35,3.66-.35,5.15,.58,8.27,.54l.06-.22c4.35,.67,9.58,.27,14.5,.55l-.59-.15c.68-.21,1.77-.23,2.57-.33,.12,.11-.58,.46,.84,.37-.29-.08-.9-.16-.72-.26,4.22,.56,13.13,.43,20.07,.7,9.38-.17,19.55,.26,28.77,.12-1.4,.02-.81-.52,.25-.39,2.89,.91,5.02-.15,7.98,.47,5.37-.29,10.16,.5,15.15-.2l.1,.26c.75,.12,.95-.06,1.73-.09l-.02,.07c1.85,.1,4.09-.16,5.15-.04l.07-.29c1.1-.02,.57,.22,1.7,.06l-.03,.14,1.31-.27c-.13,.51,3.1,.04,3.98,.27,1.42-.09,4.12-.31,6.28-.21,.4,.26,3.05,.26,4.73,.39,3.28-.06,7.97-.15,12.15-.06l-.08-.33,1.09-.02c-.02,.07,.13,.11-.03,.14,.84,.37,2.52-.11,3.39,.12-.55-.3-.76-.05-1.39-.05-.9-.16-.04-.47,1.17-.31l-.02,.07,.83-.17c.09,.26,.84,.38,.94,.63,3.59-.06,6.04-.5,9.74-.38-.38,.29,2.66-.07,1.92,.42,2.23-.19-.37-.4,.65-.75,.62,0,1.27-.13,1.39,.06-.29,.12,.51,.3,0,.35l1.49-.04c.14,.04-.19,.11-.35,.14,3.03-.29,5.37,.32,8.09,.04,.2-.18-1.08-.05-.88-.23,2.73-.36,2.42,.32,4.97,.07l-.53,.25c.82-.17,1.18-.38,2.54-.18,.24,.29-1.15,.24-1.8,.38,.93,.01,3.28-.06,2.57-.33,1.12-.1,1.52,.16,2.12,.24,.02-.07-1.04-.19-.39-.33,1.52,.16,3.86,.16,5.71,.18-.02,.07,.11,.18-.05,.22,1.49-.38,1.33,.27,3.38,.19Z" fill="#fff"/><path d="M314.1,6.88l-.75-.04c0,.06-.03,.14-.38,.21l1.13-.17Z" fill="#fff"/><path d="M278.59,6.69c-.09,.02-.19,.04-.27,.08,.18-.01,.24-.05,.27-.08Z" fill="#fff"/><path d="M269.97,7.21c.62-.06,.07-.14-.23-.22-.01,.06,0,.13,.23,.22Z" fill="#fff"/><path d="M334.21,6.11c-.13,.03-.21,.07-.19,.13,.18-.05,.21-.09,.19-.13Z" fill="#fff"/><path d="M389.81,6.32c-.07-.01-.14-.02-.22-.04,.04,.02,.12,.04,.22,.04Z" fill="#fff"/><path d="M386.73,5.87c-.15,0-.35,0-.63,.04,.27,.02,.47,0,.63-.04Z" fill="#fff"/><path d="M320.74,6.22c-.21,0-.41,.03-.58,.09,.32,0,.48-.05,.58-.09Z" fill="#fff"/><path d="M385.46,5.97l-.78-.03s-.01,.03-.01,.06l.79-.03Z" fill="#fff"/><path d="M390.78,6.36c-.3,0-.71,0-.98-.04,.39,.08,.69,.08,.98,.04Z" fill="#fff"/><path d="M354.62,5.74s-.05,0-.08,0c-.6,.12-.23,.07,.08,0Z" fill="#fff"/><path d="M382.07,6.47s-.07,0-.1-.01l-.23,.08,.33-.07Z" fill="#fff"/><path d="M394.13,6.47c-.15,0-.28,.02-.39,.05,.12,.01,.26,.02,.44,.03-.04-.04-.05-.06-.05-.09Z" fill="#fff"/><path d="M366.26,6.19c.22-.11,.3-.18,.31-.24-.26,0-.42,.05-.31,.24Z" fill="#fff"/></g></g></svg>