<?xml version="1.0" encoding="UTF-8"?>
<svg id="Layer_2" data-name="Layer 2" xmlns="http://www.w3.org/2000/svg" viewBox="0 0 288 288">
  <defs>
    <style>
      .cls-1 {
        fill: #fff;
      }

      .cls-2 {
        fill: #ffc425;
      }

      .cls-3 {
        fill-rule: evenodd;
      }
    </style>
  </defs>
  <g id="Layer_1-2" data-name="Layer 1">
    <g>
      <path class="cls-2" d="m4.21,144C4.21,66.79,66.79,4.21,144,4.21s139.79,62.59,139.79,139.79-62.59,139.79-139.79,139.79S4.21,221.21,4.21,144h0Z"/>
      <path class="cls-1" d="m49.03,144c0-52.45,42.52-94.97,94.97-94.97s94.97,42.52,94.97,94.97-42.52,94.97-94.97,94.97-94.97-42.52-94.97-94.97h0Z"/>
      <path d="m52.87,144c0,50.33,40.8,91.13,91.13,91.13s91.13-40.8,91.13-91.13-40.8-91.13-91.13-91.13-91.13,40.8-91.13,91.13h0Zm-6.68,0c0-54.02,43.79-97.81,97.81-97.81s97.81,43.79,97.81,97.81-43.79,97.81-97.81,97.81-97.81-43.79-97.81-97.81h0Z"/>
      <path d="m8.98,144c0,74.57,60.45,135.02,135.02,135.02s135.02-60.45,135.02-135.02S218.57,8.99,144,8.99,8.98,69.43,8.98,144h0Zm-8.98,0C0,64.47,64.47,0,144,0s144,64.47,144,144-64.47,144-144,144S0,223.53,0,144h0Z"/>
      <path d="m104.66,154.72c.04.16.08.35.12.57,0,.56.74.84.93.46.28-.19.46-.37.65-.56.4-.28.66-.4.87-.47h3.95c-.08.37-.13.73-.13,1.03,0,2.23-.56,3.25-1.11,4.46-.28.56-.65,1.11-.93,1.95-.74,1.86-1.11,5.11.37,7.8.19.37.37.84.56,1.21.93,1.95,1.67,4.09,2.6,6.04.84,2.23,3.9,4.18,7.62,5.02,1.86.46,3.9.65,5.94.46,1.86-.09,3.71-.65,5.29-1.58.65-.37.65-2.79-1.3-2.41-1.3.37-2.69.56-3.99.46-2.04,0-4.09-.37-5.94-1.02-.74-.19-1.39-.46-2.04-.74-1.39-.56-2.14-2.04-1.67-3.9-6.13-5.94-5.02-15.79,1.21-18.2.65-.28,2.23-.18,1.21,2.04-.56,1.11-.56,2.04-.37,3.25.37-.19.93-.37,1.67-.65,1.3-.46,3.34-1.11,5.94-1.3,1.21-.09,2.51-.09,3.99,0,1.11.09,2.23.56,3.25,1.11,1.49.84,2.97,1.95,4.18,2.88.09.09.19.19.37.28.19-.93,0-1.86-.37-2.69-.46-.93-1.21-1.77-1.86-2.51-.65-.74-.74-1.77-.65-2.6.03-.14.08-.27.13-.38h9.43c.59,2.66.43,5.55.56,8.74,1.11-.74,1.77-2.04,2.04-3.53.37-1.76.37-3.62.37-5.02.07-.06.15-.13.23-.19h17.23c-.55.36-1.1.7-1.67,1.03-1.39.74-2.97,1.49-5.11,2.14-1.49.56-3.06,2.32-.09,2.88,1.86.19,3.71.37,5.2-.09.93-.28,1.67-.83,2.32-1.67,1.82-.66,3.02-2.46,3.85-4.28h24.8c-.29,3.28-1.44,7.93-4.5,12.92-.19.19-.28.37-.37.56-.37.65-.74,1.21-1.02,1.86.37.09.74.19,1.02.46.28.28.46.74,0,1.58-.09.09-.19.28-.28.46-2.04,2.6-5.66,6.04-6.41,8.27,3.16-1.95,4.74-3.71,6.69-5.67.28-.37.65-.65.93-1.02.46-.46,2.79-1.95,2.14,1.48-.28,1.95-1.58,3.62-3.06,5.11-.74.84-1.58,1.58-2.41,2.32-2.32,2.04-4.27,3.16-6.5,5.11-.19.09-.37.28-.56.46-1.11,1.02-.37,1.21.46.93,4.55-1.49,6.04-3.34,9.01-5.11.19-.09.37-.28.56-.37,1.49-1.02,2.14-.19,2.05.84,0,.74-1.02.84-.56,2.42,5.11-3.16,10.31-10.49,9.66-17.37-1.02,1.58-1.3,2.14-2.69,2.23-1.58.19-1.58-.37-1.02-1.49,2.44-4.71,3.82-12.37,2.13-15.98h5.45c-.2.62-.26,1.26.13,1.95,2.23,4.92,1.3,11.33.37,15.14.74.18.56.37,1.76,1.3.19.19.37.37.47.56.19.37.09.65,0,.93-.19.28-.37.56-.37.74-.37,1.86-1.3,3.34-2.51,5.48-.37.93.84,2.32,2.05,1.39.28-.37.56-.56.84-.84.83-.93,1.21-1.58,1.67-2.51.84-1.76,2.69-.28,2.32,2.42-.56,3.34-1.67,5.11-3.06,8.64-.28.65-.56,1.3-.93,2.04-1.67,2.97-4.18,5.57-6.6,7.99-.74.74-1.86.56-3.34.28-2.6-.56-5.57-1.21-8.36-2.23l-1.39-.56c-1.95-1.02-3.62-.19-5.85.56.28.28.84.93,1.11,1.21.37.56.28,1.58-1.39,2.23-.46.19-.93.37-1.39.46-2.69.56-5.94.09-8.82-.74-.09.37-.37.74-.56,1.21-.56.93-.5,3.39-1.34,4.03-1.39.93-4.51-.88-6.46-1.43-.37-.09-.74-.19-1.02-.19-2.32-.74-4.46-1.58-7.34.46-.19.09-.28.19-.37.28-1.21.93-2.41,2.04-3.53,3.25-.28.28-.56.65-.84.93-2.33,1.89-3.14,5.16-5.64,7.76-.65.65-2.89.36-3.4-.32-.9-1.21-1.47-1.38-1.82-3.26-.84.84-1.3,1.67-1.86,2.42-.46.74-1.02,1.3-1.77,1.86-.46.19-1.39.47-1.67-.28-.32-.94-.37-1.67-.74-2.42-.28-.84-.65-1.58-.93-2.42-.84-2.41-1.67-1.02-2.14-.56-1.58,1.39-2.32,3.71-2.97,5.29-.37.93-.74.56-1.11.46l-.09-.09c-.84-.84-1.39-1.3-2.04-1.95-1.49-1.39-1.77-3.16-2.79-3.25-1.02-.09-.74,2.14-.93,3.25,0,.46-.09.74-.19.84-.19.19-.65,0-1.21-.56-1.95-1.77-3.9-3.62-5.2-6.04-.09-.46-1.11-1.67-1.3.09-.28,3.25-1.11,1.67-1.86,1.3-.19-.09-.46-.28-.65-.37-2.14-1.39-3.44-2.69-4.46-4.27-1.21-1.86-2.14-4.27-3.99-7.8-.46-1.02-.93-1.3-2.04-1.02-1.67.46-3.71.93-5.11,2.23-.37.28-.74-.19-1.02-.46-.93-.84-1.86-1.77-.56-3.62.93-1.39,2.42-2.32,3.44-3.53,1.02-1.21-.19-1.86-1.49-1.02-1.67,1.02-3.16,2.32-4.36,3.81-1.49,1.67-1.76.83-2.23.37-.84-.56-1.39-1.95-2.79-1.02-2.6,1.39-4.74,2.6-7.8,3.99-2.79,1.49-3.62-.93-2.51-2.6,3.44-5.02,7.34-9.47,12.17-13.74,1.02-.84,1.02-1.39.74-2.04-.46-1.49-1.11-2.97-1.58-4.46-.46-1.67-1.39.28-2.42-1.02,0-.19-2.42-2.69-3.16-5.29-.37-1.02-.56-.84-1.3-.18-.37.46-.56.37-1.02,0-.93-.93-1.86-2.23-2.04-3.81-.37-1.77-.56-2.23-.65-3.44-.21-1.58-.66-5.17-.48-7.81h29.38Zm124.23,0c.6,6.42-.32,12.91-1.51,19.14-.28,1.48-1.48,2.04-2.6,1.11-1.02-.84-.74.37-.65.74.28,1.76.65,3.44-.37,5.11-.93,1.39-2.41.56-2.6-1.11-.37-2.14.19-3.71-1.48-6.13-.74-1.02-.74-2.79-.28-3.9.28-.93.93-1.48,1.58.09,1.11,2.41,2.97,2.23,3.25.83,1.23-4.69,1.75-10.36,1.21-15.9h3.45Zm-95.55,13.2c-.74.37-1.49.46-2.32.46-1.86.19-1.39,2.88-.19,2.42.84-.19,1.67-.56,2.51-1.02,1.39-.84,2.42-2.04,2.23-3.53-.19-.74-.56-.28-.83.19-.37.65-.84,1.21-1.39,1.48h0Zm-13.19.09c-.74-.19-1.39-.56-1.77-1.21-.37-.84-.93-.37-.93.19,0,1.77,1.11,3.16,2.69,3.81.37.18.74.28,1.21.37,1.58.28,2.23-2.88.09-2.97-.37,0-.84,0-1.3-.19h0Zm43.18,6.78c-.09.09-.19.09-.28.19-1.39.84-.93,1.48.28,1.3.19,0,.37-.09.56-.09,2.23-.74,4.83-1.86,7.25-3.25,4.83-2.79,8.82-6.87,7.61-11.05-.19-.46-.09-1.49.28-1.77.74-.74,1.21-1.39,1.49-2.14.28-.46.46-1.02.56-1.67.09-.65-.19-.93-.56-.84-.19.09-.37.19-.56.46-.93,1.11-2.32,2.88-4.09,4.27-.74.74-.37,2.32-.56,3.44-.28,1.95-1.95,3.99-4.18,5.94-2.32,1.95-5.29,3.81-7.8,5.2h0Zm-36.42,15.73c-.19,0-.37-.19-.46-.37-.37-.84-.93,0-1.02.37-.14.58-.74.93-1.3,0-1.67-2.6-2.14-1.95-2.14-.56-.09,1.39.09,3.34,1.3,3.16.44-.09.22.51.65.46.37-.09.28-.46.65-.46.46-.09.47,1.42,1.95.93.52-.17,1.3-.93,2.04-.93.93,0,1.67,1.49,2.6-.19.65-.93.93-2.6.28-3.62-.37-.56-1.11.56-1.48,1.02-.65.84-.46-.37-.93-.19-.28.28-.65-1.3-1.3,0-.19.37-.56.46-.84.37h0Zm7.24-5.11c-.84,2.14-1.86,3.99-1.58,6.22.19,1.48.71,1.98,2.14.65,1.67-1.39.93-5.11.84-6.97-.09-1.02-.84-1.39-1.3-.09l-.09.19h0Zm-12.08,16.55c.57.25,1.14.5,1.71.65,1.5.29,2.89.22,4.27-.22,2.66-.7,5.07-2.59,7.02-4.46.44-.49.97-.98,1.32-1.46.71-.6.94-1.54.62-2.36-.21-.55-.35-1.28-1.75.28-.09.1-.27.2-.36.3-1.58,1.85-4.17,3.85-7.02,4.37-1.93.38-3.99.12-6.02-1.27-.29-.17-.58-.43-.87-.7-2.63-2.28-4.49-5.9-5.33-9.39-.26-1.48-.89-1.07-1,.52-.12,4.75,3.3,11.45,7.42,13.75h0Zm16.26-11.44c-.09.09-.09.19-.19.28-.28.56-.93.74-.46,1.86,0,.19.37.74.65.84.09,0,.19,0,.28-.19.28-.74.65-1.58.37-2.42-.19-.46-.19-1.21-.65-.37h0Zm-17.37,1.95s.13-.52,0-.84c-.06-.15-1.14-2.62-1.39-5.39-.19-.93-.65-2.32-1.3-.37-.46,1.3-.46,3.16-.18,4.64.18,1.11.94,2.79,2.14,2.41.33-.1.65-.19.74-.46h0Zm86.76,3.4c.56-1.02,1.11-2.14,1.76-3.25.19-.65,1.11-1.95,1.86-.84.84,1.02.84,2.6.74,3.9-.19,2.79-1.48,6.87-4.36,7.71-.56.19-1.21.19-1.86.09-1.58-.37-3.53-1.48-1.02-3.71,1.11-1.02,2.04-2.32,2.88-3.9h0Z"/>
      <path d="m75.27,154.72c.07-.93.21-1.75.48-2.31,1.02-2.23.37-2.23-.09-2.6-1.21-.93-2.42-1.02-2.51-2.69-.09-3.62.37-7.34,1.49-10.96.56-2.04-.46-1.11-.84-2.04-2.14-6.32,1.86-13.19,5.57-19.88-3.62-3.81-4.27-8.08-4.27-13.1.19-5.29,3.62-17.37,14.67-21.18,7.15-2.6,10.59,0,15.05,3.16.19.09.46.28.65.46.93.84,1.76,1.95,2.88,1.95.46,0,1.02-.09,1.58-.37.84-.46,1.76-1.12,2.51-1.76,3.62-2.88,5.29-3.9,7.71-4.37.65-.09,1.3-.19,2.04-.28,1.76-.19,2.69-.09,3.9.09,1.21.19,2.69.37,5.48.28.56-.09,1.21-.09,1.76-.09,1.39-.09,2.79-.09,4.18-.19,1.67-.19,3.25-.37,4.92-.65,1.58-.37,3.25-.37,4.74-.19,1.11.19,2.14.46,3.06,1.02.09,0,.65.37.84.46,1.21.74,2.32,1.58,3.53,2.41,2.05,1.49,3.99,3.16,5.57,4.64,1.11-.65,2.14-1.21,3.16-1.58,2.69-1.02,5.3-1.21,7.8-1.02,1.67.19,3.34.46,5.01.84,1.58.46,3.16,1.02,4.36,1.86.56.37,1.02.84,1.49,1.3,2.04,2.88,3.62,6.32,5.02,9.1.65,1.11.93,3.44.74,5.29.65.28,1.11.56,1.67.83,5.67,3.25,7.89,9.66,9.1,13.28,2.6,2.32,4.55,4.92,3.99,8.08-.19,1.3-.65,1.58-1.21.56-1.39-2.14-3.16-4.09-5.11-5.11-.56-.19-.84-.83-1.02-1.67-.56-3.25-2.79-7.06-5.76-9.38-.65-.56-1.3-.93-2.04-1.3-.93,3.44-1.49,4.46-2.69,6.04,1.76,2.69,3.53,5.67,4.74,8.82.56,1.58,1.02,3.16,1.3,4.74.28,2.14.28,3.99-.37,5.94-.28.65-.28,1.21-.19,1.95,1.02.74,1.49,1.67,2.23,2.42.74.46.93.56,1.21-.74.46-2.32.46-4.74-.28-7.15-.37-1.58-.65-3.71,1.49-.84,1.11,1.58,1.3,3.44,1.58,5.11,1.3,5.29,0,11.42-1.95,16.35-.19.56-.19,1.39-.09,1.86.04.71.04,1.59-.05,2.59h-24.8c.23-.49.43-.99.61-1.47.37-1.11-.09-2.14-2.97-.09-.73.58-1.43,1.09-2.14,1.56h-17.23c.73-.6,1.71-1.27,2.46-2.03.19-.09.37-.28.56-.46.09-.09.19-.28.28-.37,1.11-1.11,2.32-2.14,3.53-3.16,2.51-1.95,5.2-3.53,7.8-4.92.46-.19.74-.46.93-.65.19-.19.19-.37,0-.56-.46-.56-2.23-.65-2.97-.46-2.32.46-4.09,1.11-5.76,2.14-1.21.74-1.66,1.09-2.87,2.21,0,0,.18-2.31-.66-4.25-.09-.37-.37-.74-.74-.93-.09-.02-1.67-1.39-3.16-2.79-.56-.56-1.3-1.21-2.14-1.86-1.3-.93-2.42-.84-1.49,1.02.74,1.48,1.95,3.71,2.88,5.11.19.28.46.56.74.83.84.56,2.04.74,3.06.46.45,1.66.1,3.66-.59,4.47-.46.56-.43.45-1.08,1.01-.56.65-1.02,1.11-1.39,1.02-.19,0-.46-.19-.65-.65-.28-.56-.28-1.11-1.21-1.67-.46,1.3-.93,2.42-1.76,3.62.48.93.8,1.88,1.02,2.87h-9.43c.42-.91,1.47-1.24,2.38-1.57.19-.09.28-.19.46-.28,1.67-.74,1.11-2.14.09-3.06-1.11-1.02.56-3.53,1.21-5.02.65-1.48.74-3.44.28-5.02-.84-2.88-.74-3.62.46-5.67.74-1.3,1.21-2.51.65-3.71-.37-1.21-1.11-.65-1.76-.28-.83.37-1.39-.46-1.39-.93.09-1.58.93-2.51,1.3-4.18.28-.84.09-2.32-.84-2.51-.19-.09-.37-.09-.46-.19-1.49-.93-2.32-3.71-2.32-5.76,0-1.49.93-2.41,2.32-2.14,1.21.46,1.49,1.95,3.81,1.21,2.04-.56,3.99-1.39,5.85-2.32,1.02-.46,2.04-1.02,3.06-1.49l.56-.28c.09-.09.19-.09.28-.19,1.21-.46,1.76-.74,3.53.09.37.19.74.37,1.21.65,2.69,1.49,5.76,3.62,7.52,4.27.28.09.46.09.65.19,1.3.19,1.11-2.32.65-3.71-.19-.37-.65-.93-1.3-1.39-1.58-1.3-4.36-2.69-5.94-3.16-1.95-.65-1.76-2.32-1.76-3.44,0-1.95,1.48-3.9,3.34-4.92,1.49,1.11,2.51,2.04,4.09,2.97.09.09.19.19.28.19,2.88,1.86,5.85,4.64,7.52,6.5.09.19.19.28.28.37,1.58,2.14,3.62,6.5,4.46,9.1.46,1.95,1.95,4.92,3.34,6.41.74.74,1.21,1.49,1.58,2.23.65,1.02,1.11,2.23,1.95,3.81,2.88-3.16.93-7.62-1.95-11.05-.74-.93-1.67-1.86-2.51-2.6-.46-.37-.84-1.49-1.11-2.04-1.11-3.25-2.23-6.87-3.62-7.89-.84-.56-1.58-1.21-2.14-1.95-.37-.46-.74-.93-.93-1.39-1.21-2.79-2.6-5.2-5.29-6.78-2.23-1.39-.09-3.53,2.69-2.42,1.48.56,2.6,1.67,3.53,2.97.74,1.11,1.3,2.32,1.86,3.53.93,1.39,1.77,3.34,3.07,2.51,1.48-1.02,1.95-3.9,2.04-5.57.09-.84-.09-2.79,1.95-1.58.28.19.37.46.46.84.19.46.28.93.74,1.58,1.21-1.77.65-5.29-.74-7.71-.28-.56-.56-1.02-.93-1.39-2.32-2.69-4.55-3.53-8.45-3.53-.74,0-1.58.09-2.42.09-2.23.09-3.9.84-5.39,1.76-1.3.84-2.41,1.86-3.62,2.79-1.3.74-2.6.65-4.36-1.3-.28-.28-.46-.56-.74-.84-1.21-1.39-2.41-2.51-3.53-3.44-.28-.28-.56-.46-.84-.74-1.02-.74-2.04-1.39-3.06-1.76-1.48-.65-3.06-.84-4.83-.65-1.39.19-3.07.37-4.83.46-1.39.09-2.79.19-4.18.19-.84-.09-1.67-.09-2.51-.28-1.77-.28-3.25-.46-4.74-.56-2.14-.09-4.09.09-5.94.46-1.3.37-2.51.74-3.81,1.3-1.11.56-3.81,2.6-6.41,4.55-1.77,1.3-3.44,2.51-4.46,3.25-.19.19-.28.28-.46.37-1.76,1.39-4.09,1.76-5.85.93-.93-.28-.37-1.02.56-1.39,2.88-1.21,2.51-2.79,1.67-3.99-1.76-2.79-4.36-6.04-7.62-6.04-4.27,0-9.01,2.69-11.24,6.22-2.69,4.09-3.9,9.01-2.32,14.58,1.39-1.95,3.25-3.53,4.55-5.02,1.21-1.3,2.42-1.77,5.11-1.39,1.67.37,2.42.65,4.74,1.21-2.42,2.42-4.55.37-6.41,2.69-1.39,1.95-3.16,3.81-3.99,6.13-.83,2.14-.09,3.34,1.58,4.64.56.46.28.84.09,1.11-.46,1.3-1.67,2.04-2.14,3.44-2.14,4.55-4.55,7.24-2.79,10.59.28.46.65.46.84.09,1.3-2.14,5.57-5.76,9.38-5.11-.56,1.95-1.3,3.71-2.32,6.04-.74,1.86.19,2.23-1.11,3.07-3.25,2.14-4.18,3.07-5.67,5.39-.56.93-.09,1.77.93,1.86,2.88.37,2.79,1.39,2.42,5.76,0,1.02-.37,2.88,1.77,2.14,2.14-.65,3.25-.37,3.9.84.93,2.04,1.77,3.9,2.79,5.76.93,1.3.74,1.86,2.51,1.67-.09-1.86,1.21-3.44,2.42-4.55.84-.74.28-1.58-.19-2.14-.74-1.3-1.39-2.69-1.58-4.09,0-.56,0-.74-.74-.74-1.86,0-2.23.19-2.69.65-1.49,1.21-4.09.37-1.95-2.51,1.02-1.11,1.39-.74,1.49-1.58.28-1.3.19-1.95-.93-2.51-1.58-.84-1.58-1.3-.74-2.79.56-1.58,1.11-2.79,2.79-4.36,1.3-1.3-.84-2.6,1.02-3.62,2.97-1.67,6.97-2.32,10.22-3.53.28-2.14,1.11-2.32,2.6-2.04.56.19,1.21.37,1.86.65,1.49.46,3.16,1.11,4.64,1.49,1.58.46,2.23-.46,1.3-1.49-1.58-1.77-3.71-1.95-5.76-4.18-1.02-.93-2.14-.93-3.81.19-.28.09-.56.28-.84.46-2.23,1.39-4.09,2.79-6.22,3.9-1.02.56-1.95,1.39-2.97,1.11-.37-.93-.09-2.79.74-3.44,1.11-1.11,2.42-.56,3.81-.65.46-1.39,2.14-3.62,4.64-4.83,1.11-.56,2.41-.93,3.81-.93h.65c3.16.46,5.76,3.53,9.01,3.99.28.09.74,0,1.21-.09,1.3-.28,2.79-1.11,2.32-1.86-.65-1.11-1.39-2.04-2.32-2.79-1.95-1.58-4.36-2.51-7.24-2.97-1.11-.09-2.14-.19-2.97-.19-1.58,0-2.88.19-4.46.37-.46.09-1.02.19-1.58.28-.19-1.49.09-2.6,1.58-3.62.56-.37,1.11-.74,1.95-1.11.46-.19.65-1.3-.84-1.02l-1.11.28c-2.51.56-4.83,1.48-6.87,3.16-2.23,1.95,1.39,3.53-1.21,5.76-1.77,1.49-3.62,2.79-5.76,3.99-1.58,1.11-2.51-1.11-1.58-2.32,1.21-1.67,2.69-5.2,2.51-6.04-.28-1.39-1.58-2.6,0-4.18,3.44-3.34,7.89-5.94,12.91-8.36,1.39-.74,2.88-1.39,4.46-2.14,1.49-.65,2.97-1.3,4.55-1.95,1.77-.74,3.81-1.21,5.67-1.3,1.67-.19,3.25-.19,4.36,0,.56.09,1.02.19,1.58.19,1.95.09,3.81-.56,7.24-.93,1.21-.19,2.51-.37,4.18-.37,1.11-.09,2.42-.09,3.81-.09,1.95,0,3.62.74,5.85,1.86.93.46,1.95.93,3.06,1.49.28.09.56.28.84.37l1.39.56c1.02.56,1.86,1.49,1.11,2.32-.65.74-1.58,1.39-2.51,1.86-.28.19-.56.28-.84.37-.37.19-.83.28-1.11.28-.65,0-1.3-.28-1.95-.56-1.95-1.02-4.18-2.97-7.89-3.16-.56-.09-1.11,0-1.77.09-1.3.09-2.69.37-4.18.74-1.49.37-2.97.84-4.18,1.21-1.21.28-1.21,2.69.93,3.44,1.58.74,2.32,1.3,3.25,1.95,2.23,1.39,2.23.74,3.9.37h.28c1.02-.19,2.04-.56,3.16-.56,1.21,0,1.77.84,1.39,2.23-.37,1.11-2.42,2.04-4.55,3.06-1.58.84-3.16,1.67-4.18,2.6-2.23,2.32-2.51,4.74-1.76,7.52.93,4.55,1.11,11.14-1.3,14.12-.83,1.02-3.62.56-3.53-1.58,0-2.51,1.02-6.41.09-8.73-.28,0-.56.09-.74.19-.84.28-1.39.84-1.86.74-1.11-.09-1.39.28-2.23,1.3l-1.86,2.14c-1.67,1.95-3.16,4.09-2.97,6.32.28,2.32.74,3.99,1.67,6.04,1.02,2.6-.09,3.53-1.21,4.27-1.86,1.3-2.88,5.94-2.41,9.01.09,1.21-1.02,2.04-1.58,1.39-.92-1.37-2.08.7-2.47,2.4h-3.95c.27-.08.45-.07.71-.17.28-.28.83-.93.37-1.39-.74-.84-.37-1.02-1.21-2.04-.19-.28-.46-.56-.74-.65-.19,0-.37,0-.56.19-.28.18-.84.74-1.02,1.02-.19.28-.74,1.02-.46,1.67.14.56.23.86.34,1.38h-29.38Zm124.27,0c-.11-.23-.23-.44-.36-.64-.28-.37-.09-1.3.28-1.67,3.9-4.83,4.27-12.63,4.09-18.57,0-1.11,1.39-1.67,2.04-.19,2.14,6.41,2.23,13.19-.46,20.71-.05.12-.09.24-.13.36h-5.45Zm25.89,0c-.39-4.12-1.37-8.17-3.07-11.69-.46-1.11.84-1.77,1.58-.93,2.79,3.16,4.27,6.04,4.92,12.35.01.09.02.18.03.27h-3.46Zm-75.2-36.77c-.65.56-1.39,1.02-1.11,1.39.09.28.65.28,1.11.28.37-.09.65-.09.84-.09,1.67.19,2.6.37,3.53.65.93.28,1.77.65,2.97,1.39.93.56,2.41.93,3.16.28.74-.56.65-1.11,0-1.67-1.95-1.49-2.97-2.51-6.13-3.25-.65-.09-1.39-.19-2.23-.28-.37-.09-.93.09-1.3.37,0,.09-.09.19-.09.28-.18.18-.46.46-.74.65h0Zm.84,7.61c-.56.19-.46.37,0,.56.28.19.74.28,1.11.37.84.28,1.67.46,2.41.74.74.28,1.49.74,2.14,1.58,1.11,1.11,2.41-.74,1.39-1.86-.93-.93-2.23-1.49-3.53-1.77-.83-.09-1.67-.09-2.51.09-.47.09-.74.19-1.02.28h0Zm20.06-4.83c-.28-.46-.46-.84-.74-1.21-.84.93-1.76,2.04-2.79,2.79,1.11,1.58,1.39,3.44,1.86,5.11.65.37,1.21.74,1.67,1.11,1.11.93,1.67,2.14,2.14,3.9,1.11-.84,2.04-1.49.74-4.18-.65-1.3-1.3-2.51-1.67-3.99-.09-1.11-.65-2.41-1.21-3.53h0Zm-16.53,17c-.28.28-.56.46-.93.74-1.67,1.3-.65,2.6.93,2.51.28,0,.65-.09,1.02-.19,2.32-.83,4.83-1.21,7.71-1.21.84,0,1.77,0,2.69.09.46-1.3,1.39-1.86,1.95-2.14,1.02-.65,1.39-1.21.28-2.32-.93-.93-1.48-1.02-3.34-.46-.46.09-1.02.28-1.58.46-1.21.46-2.6.93-4.18,1.58-.93.46-.84-.28-.28-1.11,1.86-2.79,0-3.44-1.02-2.69-.46.46-1.39,1.49-1.67,2.42-.28.83-.65,1.48-1.58,2.32h0Zm-50.04-11.42c-1.77-.09-3.72,1.11-5.2,1.3-.37,0-.93.46-1.02.74-.37,1.39-1.39,2.32-2.42,3.25-.93.84-.65,1.39,0,1.58,1.21.56,2.51,1.11,3.53,1.95.56.37,1.21.56,1.86-.19.09-.09,0-.56.84-.84.65-.46.84-.93.46-1.21-.65-.46-1.21-.65-2.04-1.02-.37-.19-.56-.74-.19-1.21,1.21-1.02,1.95-1.76,3.81-2.79.09-.09.28-.19.37-.28.56-.46.56-1.21,0-1.3h0Zm5.36,14.21c-.65.56-1.3,1.11-2.04,1.58-1.39,1.02-.65,2.32-.18,3.25.18.56,1.02.37,1.58-.19.19-.28.37-.37.65-.46.65-.37,1.3-.65,1.67-2.32.28-1.3.65-2.69,1.02-3.71-.65-.09-1.58.84-2.69,1.86h0Zm-2.5-11.7c-1.95.37-2.32,1.39-2.32,2.42,0,.93,1.32,1.63,2.14,2.04,2.14,1.08,4.86.36,5.79-.57-.09-1.29-.28-2.82.55-4.29-1.32.08-2.14-.02-3.19.06.28.32.45.74.45,1.2,0,.38-.12.73-.32,1.02-.04.06-.08.11-.13.17-.33.39-.83.63-1.38.63-1.01,0-1.82-.82-1.82-1.82,0-.31.08-.6.22-.86h0Zm81.99,21.73c.37-.84.84-1.67,1.21-2.6.65-1.67,1.3-4.46-.93-6.97l-.28,1.49c-.65,3.71-1.49,6.41-1.77,9.57-.37,1.86,1.3.83,1.39-.19.09-.37.18-.83.37-1.3h0Zm-43.09-20.87c0-.17.02-.32.06-.48-.68.04-1.2.12-2.03.26.18,1.02-.12,2.91.7,3.45,2.7,1.78,6.07.83,7.1-1.78.26-.66.19-1.21-.28-1.58-.68-.43-1.41-.47-2.01-.47.06.18.1.38.1.59,0,1.01-.81,1.82-1.82,1.82-1,0-1.82-.81-1.82-1.82h0Zm3.89-52.59c1.25.13,5.13-.47,13.1-3.25,2.6-.46,5.02-.19,7.8.28,1.02.19,2.14.37,3.34.65,2.23.46,3.9,1.21,5.67,2.6.09.09.28.19.37.28,1.21.56,3.06.65,4.74,0,1.39-.65,2.69-1.11,4.18-1.39.46,0,.93-.09,1.39-.09,3.53-.09,6.87,1.21,10.12,2.14,3.25.84,5.2,1.95,6.78,3.34,1.39,1.21,2.32,2.69,3.44,4.46,4.92,7.24,7.99,16.62,10.59,24.24,2.88-.09,5.2.74,7.24,1.86,1.67.93,3.16,2.41,3.81,4.18.37.84-.74,3.25-1.76,2.04-1.3-1.77-2.32-2.23-3.99-2.88-1.67-.56-3.44-.74-5.02-.28-.28.09-.93.19-.28.84,1.21.74,1.95,2.04,2.69,3.16,1.02,1.77,1.76,3.9,2.41,5.85.93,2.97,1.21,6.13,1.39,9.29.09,1.49.28,2.88-.28,3.81-1.11,2.79-2.23-.74-2.23-1.21.19-3.25.19-5.11-1.11-9.75-.84-3.34-3.34-7.8-6.32-10.22-1.02-.84-1.3-1.11-1.21-2.69.19-4.09-1.3-10.59-2.88-13.1-2.41-3.81-3.9-7.8-5.67-11.61l-.83-1.67c-1.95-3.34-5.02-5.94-8.64-7.15-2.97-1.02-6.5-1.67-9.66-1.3-1.21.09-2.41.37-3.53.74-.93.37-1.49.56.28,1.76,1.02.65,2.23,1.02,3.25,1.49,1.21.56,2.23,1.21,2.88,2.6.84,1.67,2.41,4.27,3.34,6.32.09.74.74,1.58,1.3,1.95,5.48,3.07,8.36,6.96,10.12,11.98.28.74.46,1.3.65,1.67.37.93.46,1.11.74,3.25.09,1.02.37,3.16,1.49,3.99,1.95,1.77,2.97,3.99,3.9,6.87,1.67,4.36,2.51,8.73,2.04,13.1-.19,1.76-.28,3.16-1.11,5.29-.65,1.58-1.48,1.39-1.48-.28,0-4.18-.46-8.36-1.3-12.72-.74-2.88-2.23-5.94-4.27-8.27-1.3-1.3-1.77-3.06-2.04-4.83-1.11-8.92-4.83-12.72-11.15-16.62-1.3-.65-1.48-1.11-1.86-2.23-.28-1.39-1.21-3.9-3.25-6.5-1.58-2.14-3.9-4.18-7.15-5.76-.65-.37-1.21-.74-1.77-1.3-.37-.37-.65-.74-.93-1.21-1.02-1.12-2.6-1.86-3.99-2.23-.74-.19-3.06-1.12-4.46-1.58-.46-.19-.84-.19-1.02-.28-3.06-.28-4.36-.37-6.78.09-.37.09-.74.19-1.21.28-1.48.46-3.06,1.11-4.64,1.39-1.11.19-2.61.38-2.88.37-1.39.19-1.91.15-2.93-.32-.28-.09-1.44-1.45-1.44-1.45h0Z"/>
      <polygon points="78.05 61.8 81.6 59.5 74.33 48.3 83.14 52.84 83.22 52.79 82.65 42.83 89.95 54.07 93.52 51.75 82.09 34.14 78.24 36.64 79 46.3 70.44 41.71 66.61 44.19 78.05 61.8"/>
      <path class="cls-3" d="m106.62,46.29c5.18-1.99,7.29-7.55,5.04-13.41l-.13-.34c-2.25-5.85-7.46-8.54-12.67-6.55-5.18,1.99-7.3,7.53-5.04,13.41l.13.34c2.25,5.85,7.46,8.55,12.67,6.55h0Zm-1.41-3.76c-2.72,1.04-5.64-.63-7.12-4.5l-.08-.2c-1.48-3.87-.48-7.02,2.27-8.07,2.72-1.04,5.61.64,7.1,4.51l.08.2c1.48,3.87.47,7.02-2.24,8.06h0Z"/>
      <polygon points="120.11 41.39 124.33 40.79 122.57 28.23 132.56 39.64 136.25 39.12 133.32 18.32 129.1 18.92 130.81 31.04 121.14 20.04 117.19 20.59 120.11 41.39"/>
      <polygon points="145.54 39.04 149.85 39.19 150.45 22.23 155.72 22.41 155.86 18.39 140.99 17.87 140.85 21.89 146.13 22.07 145.54 39.04"/>
      <path class="cls-3" d="m155.3,39.32l4.3.84,2.37-4.18,7.1,1.38.66,4.77,4.42.86-3.36-22.17-4.06-.79-11.42,19.3h0Zm8.7-6.87l3.57-6.27.93,7.15-4.51-.88h0Z"/>
      <polygon points="177.96 44.32 181.85 46.06 187.01 34.46 189.44 49.44 192.84 50.95 201.38 31.77 197.49 30.03 192.51 41.21 190.15 26.76 186.5 25.14 177.96 44.32"/>
      <path class="cls-3" d="m196.28,52.57l3.59,2.51,3.87-2.86,5.92,4.15-1.34,4.63,3.69,2.58,5.95-21.62-3.39-2.38-18.28,12.98h0Zm10.74-2.73l5.81-4.28-2.05,6.91-3.76-2.63h0Z"/>
      <polygon points="17.04 143.27 17.19 147.61 25.49 147.33 25.77 155.39 29.76 155.25 29.48 147.19 34.19 147.02 34.51 156.2 38.49 156.06 38.02 142.54 17.04 143.27"/>
      <polygon points="18.53 162.9 19.21 167.2 39.95 163.91 39.27 159.62 18.53 162.9"/>
      <path d="m22.37,180.79c1.19,3.9,4.36,6.04,8.09,4.9l.06-.02c3.13-.96,4.04-3.31,4.35-7.23.33-3.52.67-4.38,1.82-4.73h.03c1.03-.33,2.02.35,2.46,1.78.47,1.55.09,3.27-.56,4.85l3.87,1.36c1.1-2.35,1.2-4.89.48-7.24-1.18-3.87-4.39-5.84-7.89-4.77l-.06.02c-3.44,1.05-4.11,3.67-4.4,7.65-.21,3.2-.67,3.97-1.67,4.28h-.03c-1.18.37-2.28-.36-2.77-1.97-.61-2.01-.02-3.98.74-5.68l-3.82-1.53c-1.39,2.84-1.46,5.78-.68,8.34h0Z"/>
      <polygon points="27.17 194 29.07 197.91 36.76 194.16 39.78 200.36 32.1 204.11 34.01 208.02 52.88 198.81 50.97 194.9 43.4 198.6 40.37 192.4 47.95 188.7 46.04 184.79 27.17 194"/>
      <path d="m34.05,216.56c2.07,2.69,4.54,3.19,7.59,1.06l3.17-2.22-2.67-3.81-3.79,2.65,1.07,1.52c-1.22,1.04-2.68,1.04-4.13-.51l-1.24,1.31h0Z"/>
      <polygon points="53.12 233.16 56.06 235.81 67.85 228.46 61.77 240.95 64.73 243.62 83.33 231.94 79.98 228.92 68.12 236.85 74.54 223.94 71.73 221.41 59.58 229.17 66.2 216.52 62.79 213.45 53.12 233.16"/>
      <polygon points="75.17 250.58 78.86 252.88 89.99 235.07 86.3 232.77 75.17 250.58"/>
      <polygon points="84.63 256.29 96.26 261.71 97.95 258.1 90.26 254.51 97.44 239.09 93.5 237.26 84.63 256.29"/>
      <path class="cls-3" d="m102.33,264.14l6.55,1.76c5.88,1.58,10.77-1.49,12.36-7.43l.07-.26c1.59-5.94-1.12-11.02-7-12.59l-6.55-1.76-5.43,20.29h0Zm10.94-14.74c3.19.85,4.76,3.7,3.68,7.73l-.04.15c-1.08,4.03-3.85,5.68-7.04,4.82l-2.32-.62,3.4-12.69,2.32.62h0Z"/>
      <polygon points="124.66 269.48 137.41 271.05 137.89 267.08 129.47 266.05 131.54 249.17 127.22 248.64 124.66 269.48"/>
      <polygon points="143.25 270.85 147.6 270.77 147.23 249.77 142.89 249.85 143.25 270.85"/>
      <polygon points="154.3 270.64 158.61 270.04 157.45 261.81 165.44 260.69 164.89 256.73 156.89 257.86 156.24 253.19 165.33 251.92 164.77 247.97 151.38 249.85 154.3 270.64"/>
      <polygon points="173.84 267.47 186.89 263.48 185.74 259.72 176.82 262.45 175.45 257.97 183.2 255.6 182.05 251.84 174.3 254.21 172.98 249.88 181.79 247.19 180.64 243.43 167.7 247.38 173.84 267.47"/>
      <path class="cls-3" d="m211.12,252.36l1.71-3.42-3.82-1.38c.12-1.64.03-3.41-.24-5.25l-3.52.34c.17,1.42.24,2.54.23,3.64l-3.67-1.43c1.53-2.19,2.12-4.4.81-6.76l-.06-.11c-1.38-2.49-4.32-3.4-7.21-1.8-3.15,1.74-3.83,4.97-2.48,7.41l.04.08c.7,1.26,1.8,2.19,3.49,3.07-1.47,2.36-1.76,4.68-.48,6.99l.04.08c1.76,3.17,5.35,3.83,8.52,2.07,1.97-1.09,3.08-2.67,3.75-4.55l2.87,1.02h0Zm-12.34-8.59c-1.25-.58-1.94-1.09-2.39-1.9l-.03-.05c-.55-1-.33-2.08.61-2.6.89-.49,1.89-.19,2.44.81l.03.05c.61,1.1.37,2.27-.66,3.69h0Zm4.43,8.73c-1.36.76-2.8.39-3.55-.95l-.03-.05c-.51-.92-.6-2.14.1-3.42l5.29,2.11c-.38,1.04-.97,1.84-1.81,2.31h0Z"/>
      <path class="cls-3" d="m225.39,241.52l3.18-2.97-4.36-4.67,1.8-1.68c3.16-3.07,4.03-7.2.74-10.74l-.04-.04c-3.05-3.27-7.08-3.24-10.53-.03l-5.11,4.77,14.32,15.36h0Zm-3.84-10.49l-4.62-4.96,1.73-1.62c1.69-1.58,3.43-1.56,4.92.05l.02.02c1.33,1.43,1.37,3.32-.27,4.85l-1.78,1.66h0Z"/>
      <path class="cls-3" d="m238.73,228.91l2.64-3.5-2.72-3.97,4.35-5.77,4.58,1.5,2.71-3.59-21.4-6.7-2.49,3.31,12.34,18.72h0Zm-2.36-10.83l-4.07-5.96,6.83,2.3-2.76,3.67h0Z"/>
      <path class="cls-3" d="m254.12,207.44l1.91-3.91-6.2-3.02,1.2-2.45,7.9-.45,2.18-4.48-8.97.6c.1-2.52-1.01-4.83-3.87-6.23l-.11-.05c-1.86-.91-3.62-1.06-5.14-.54-1.77.61-3.24,2.06-4.31,4.24l-3.46,7.09,18.87,9.21h0Zm-7.75-8.62l-5.69-2.77,1.37-2.8c.98-1.99,2.48-2.69,4.37-1.77h.03c1.7.84,2.3,2.47,1.33,4.47l-1.41,2.88h0Z"/>
      <polygon points="263.6 186.94 264.88 182.78 258.96 180.97 257.18 178.39 266.98 175.89 268.47 171.02 254.76 174.51 248.3 165.16 246.8 170.07 253.46 179.29 244.79 176.64 243.52 180.8 263.6 186.94"/>
      <path d="m270.35,158.53c.5-4.05-1.52-7.29-5.4-7.77h-.06c-3.25-.4-5.04,1.37-6.91,4.83-1.74,3.08-2.39,3.73-3.58,3.58h-.03c-1.07-.14-1.7-1.15-1.52-2.64.2-1.61,1.25-3.02,2.48-4.2l-2.98-2.81c-1.96,1.69-3.09,3.97-3.39,6.42-.49,4.02,1.63,7.12,5.27,7.57h.06c3.57.45,5.25-1.68,7.14-5.19,1.5-2.84,2.22-3.35,3.27-3.23h.03c1.22.15,1.93,1.27,1.73,2.94-.26,2.08-1.6,3.64-2.99,4.89l2.87,2.95c2.42-2.03,3.69-4.68,4.01-7.34h0Z"/>
    </g>
  </g>
</svg>