<?xml version="1.0" encoding="utf-8"?>
<!-- Generator: Adobe Illustrator 14.0.0, SVG Export Plug-In . SVG Version: 6.00 Build 43363)  -->
<!DOCTYPE svg PUBLIC "-//W3C//DTD SVG 1.1//EN" "http://www.w3.org/Graphics/SVG/1.1/DTD/svg11.dtd">
<svg version="1.1" id="Layer_1" xmlns="http://www.w3.org/2000/svg" xmlns:xlink="http://www.w3.org/1999/xlink" x="0px" y="0px"
	 width="792px" height="612px" viewBox="0 0 792 612" enable-background="new 0 0 792 612" xml:space="preserve">
<g>
	<path fill="#FFC425" d="M255.208,307c0-77.206,62.586-139.792,139.792-139.792c77.207,0,139.793,62.585,139.793,139.792
		c0,77.207-62.586,139.793-139.793,139.793C317.794,446.793,255.208,384.207,255.208,307L255.208,307z"/>
	<path fill="#FFFFFF" d="M300.03,307c0-52.451,42.519-94.97,94.97-94.97s94.971,42.52,94.971,94.97
		c0,52.452-42.52,94.971-94.971,94.971S300.03,359.452,300.03,307L300.03,307z"/>
	<path d="M303.868,307c0,50.332,40.801,91.133,91.132,91.133c50.332,0,91.133-40.801,91.133-91.133
		c0-50.332-40.801-91.133-91.133-91.133C344.668,215.867,303.868,256.668,303.868,307L303.868,307z M297.187,307
		c0-54.021,43.792-97.813,97.813-97.813s97.814,43.792,97.814,97.813c0,54.022-43.793,97.814-97.814,97.814
		S297.187,361.022,297.187,307L297.187,307z"/>
	<path d="M259.985,307c0,74.567,60.447,135.015,135.015,135.015c74.568,0,135.016-60.447,135.016-135.015
		S469.568,171.985,395,171.985C320.433,171.985,259.985,232.433,259.985,307L259.985,307z M251,307c0-79.53,64.47-144,144-144
		c79.529,0,144,64.47,144,144c0,79.53-64.471,144-144,144C315.47,451,251,386.53,251,307L251,307z"/>
	<path d="M355.656,317.717c0.037,0.16,0.076,0.345,0.12,0.567c0,0.558,0.743,0.837,0.928,0.465c0.279-0.186,0.465-0.371,0.651-0.558
		c0.399-0.278,0.661-0.404,0.866-0.471l3.949-0.004c-0.085,0.375-0.133,0.732-0.133,1.032c0,2.229-0.558,3.251-1.114,4.458
		c-0.279,0.557-0.65,1.114-0.929,1.95c-0.743,1.857-1.115,5.108,0.372,7.801c0.186,0.372,0.372,0.837,0.557,1.207
		c0.929,1.951,1.671,4.087,2.6,6.037c0.836,2.229,3.9,4.18,7.616,5.016c1.857,0.464,3.901,0.65,5.944,0.464
		c1.857-0.093,3.715-0.649,5.294-1.579c0.65-0.371,0.65-2.785-1.301-2.414c-1.3,0.371-2.693,0.557-3.993,0.465
		c-2.043,0-4.086-0.372-5.944-1.021c-0.743-0.187-1.393-0.465-2.043-0.743c-1.393-0.558-2.136-2.044-1.672-3.9
		c-6.129-5.944-5.015-15.789,1.208-18.204c0.65-0.278,2.229-0.185,1.207,2.044c-0.557,1.114-0.557,2.043-0.372,3.25
		c0.372-0.186,0.929-0.371,1.672-0.65c1.3-0.464,3.343-1.114,5.944-1.3c1.208-0.093,2.507-0.093,3.993,0
		c1.115,0.093,2.229,0.558,3.25,1.114c1.486,0.836,2.972,1.951,4.18,2.879c0.092,0.094,0.186,0.186,0.372,0.279
		c0.186-0.929,0-1.857-0.372-2.693c-0.464-0.929-1.208-1.765-1.857-2.508c-0.65-0.742-0.743-1.765-0.65-2.6
		c0.032-0.139,0.076-0.266,0.13-0.383h9.429c0.589,2.663,0.428,5.553,0.564,8.741c1.115-0.743,1.765-2.044,2.042-3.53
		c0.373-1.764,0.373-3.622,0.373-5.015c0.072-0.063,0.148-0.128,0.229-0.194l17.229-0.002c-0.549,0.364-1.102,0.707-1.67,1.032
		c-1.393,0.742-2.971,1.486-5.107,2.136c-1.486,0.558-3.064,2.322-0.094,2.879c1.857,0.186,3.715,0.372,5.201-0.093
		c0.93-0.278,1.672-0.835,2.322-1.671c1.824-0.656,3.016-2.458,3.85-4.28l24.797-0.003c-0.287,3.279-1.438,7.936-4.5,12.92
		c-0.186,0.186-0.279,0.371-0.371,0.558c-0.371,0.649-0.744,1.207-1.021,1.857c0.371,0.092,0.742,0.186,1.021,0.464
		c0.279,0.279,0.465,0.743,0,1.579c-0.094,0.093-0.186,0.278-0.279,0.464c-2.043,2.601-5.664,6.037-6.408,8.266
		c3.158-1.95,4.736-3.714,6.688-5.665c0.279-0.371,0.65-0.649,0.928-1.021c0.465-0.464,2.787-1.95,2.137,1.485
		c-0.277,1.951-1.578,3.622-3.064,5.108c-0.744,0.836-1.578,1.579-2.414,2.322c-2.322,2.043-4.273,3.157-6.502,5.107
		c-0.186,0.093-0.371,0.278-0.557,0.465c-1.115,1.021-0.373,1.207,0.465,0.929c4.551-1.486,6.035-3.344,9.008-5.107
		c0.186-0.094,0.371-0.279,0.557-0.372c1.486-1.021,2.137-0.186,2.045,0.836c0,0.742-1.023,0.836-0.559,2.415
		c5.107-3.158,10.309-10.495,9.658-17.368c-1.021,1.579-1.299,2.137-2.693,2.229c-1.578,0.186-1.578-0.371-1.021-1.486
		c2.443-4.711,3.82-12.374,2.131-15.979l5.451-0.006c-0.195,0.629-0.262,1.263,0.127,1.961c2.229,4.922,1.301,11.33,0.371,15.139
		c0.744,0.185,0.559,0.371,1.764,1.3c0.188,0.186,0.373,0.372,0.467,0.558c0.186,0.371,0.092,0.649,0,0.928
		c-0.188,0.279-0.373,0.558-0.373,0.743c-0.371,1.857-1.299,3.344-2.508,5.479c-0.371,0.929,0.838,2.322,2.045,1.394
		c0.277-0.371,0.557-0.558,0.836-0.836c0.834-0.929,1.207-1.579,1.67-2.508c0.836-1.764,2.693-0.278,2.322,2.415
		c-0.557,3.344-1.672,5.107-3.064,8.638c-0.279,0.649-0.557,1.3-0.928,2.043c-1.672,2.972-4.18,5.571-6.596,7.986
		c-0.742,0.743-1.857,0.558-3.342,0.278c-2.602-0.557-5.572-1.207-8.359-2.229l-1.393-0.558c-1.951-1.021-3.623-0.186-5.852,0.558
		c0.279,0.279,0.836,0.929,1.115,1.207c0.371,0.558,0.277,1.579-1.395,2.229c-0.463,0.186-0.928,0.371-1.393,0.464
		c-2.693,0.558-5.943,0.094-8.822-0.742c-0.094,0.371-0.371,0.742-0.557,1.207c-0.559,0.929-0.504,3.385-1.34,4.034
		c-1.395,0.929-4.512-0.877-6.463-1.435c-0.371-0.093-0.742-0.186-1.021-0.186c-2.322-0.742-4.457-1.578-7.336,0.465
		c-0.186,0.093-0.279,0.186-0.373,0.278c-1.207,0.929-2.414,2.043-3.527,3.251c-0.279,0.278-0.559,0.649-0.838,0.929
		c-2.326,1.887-3.135,5.162-5.643,7.763c-0.65,0.65-2.885,0.364-3.398-0.321c-0.902-1.207-1.473-1.38-1.824-3.263
		c-0.836,0.836-1.3,1.672-1.857,2.415c-0.464,0.743-1.022,1.3-1.765,1.857c-0.464,0.186-1.388,0.472-1.672-0.278
		c-0.322-0.94-0.372-1.672-0.743-2.415c-0.278-0.836-0.65-1.579-0.928-2.415c-0.836-2.414-1.671-1.021-2.137-0.557
		c-1.578,1.393-2.321,3.715-2.971,5.293c-0.372,0.93-0.743,0.558-1.115,0.465l-0.093-0.093c-0.836-0.836-1.393-1.3-2.043-1.95
		c-1.486-1.394-1.765-3.158-2.787-3.25c-1.021-0.094-0.743,2.136-0.928,3.25c0,0.465-0.093,0.743-0.186,0.836
		c-0.186,0.186-0.65,0-1.207-0.558c-1.951-1.765-3.901-3.622-5.201-6.037c-0.093-0.464-1.114-1.671-1.3,0.094
		c-0.279,3.25-1.115,1.671-1.857,1.3c-0.186-0.093-0.465-0.278-0.65-0.372c-2.136-1.393-3.436-2.692-4.458-4.271
		c-1.207-1.857-2.136-4.272-3.994-7.801c-0.464-1.022-0.929-1.301-2.043-1.022c-1.671,0.465-3.715,0.93-5.108,2.229
		c-0.372,0.278-0.743-0.186-1.022-0.464c-0.929-0.836-1.857-1.766-0.557-3.623c0.929-1.393,2.415-2.322,3.437-3.528
		c1.021-1.208-0.186-1.858-1.486-1.021c-1.672,1.021-3.158,2.321-4.365,3.808c-1.486,1.671-1.764,0.835-2.229,0.371
		c-0.836-0.558-1.394-1.951-2.786-1.021c-2.601,1.393-4.737,2.601-7.802,3.993c-2.786,1.486-3.621-0.929-2.507-2.601
		c3.437-5.015,7.337-9.473,12.167-13.745c1.021-0.836,1.021-1.393,0.743-2.043c-0.464-1.486-1.114-2.972-1.578-4.457
		c-0.465-1.673-1.394,0.278-2.415-1.022c0-0.186-2.415-2.693-3.158-5.294c-0.371-1.021-0.557-0.836-1.3-0.185
		c-0.372,0.464-0.557,0.37-1.021,0c-0.929-0.93-1.857-2.229-2.043-3.809c-0.372-1.765-0.558-2.229-0.65-3.437
		c-0.206-1.575-0.664-5.171-0.48-7.807L355.656,317.717L355.656,317.717z M479.881,317.717c0.598,6.415-0.322,12.914-1.514,19.143
		c-0.277,1.485-1.484,2.043-2.6,1.114c-1.021-0.836-0.742,0.371-0.65,0.743c0.279,1.764,0.65,3.437-0.371,5.107
		c-0.93,1.394-2.414,0.558-2.602-1.114c-0.371-2.136,0.188-3.715-1.484-6.13c-0.744-1.021-0.744-2.785-0.279-3.9
		c0.279-0.929,0.93-1.485,1.578,0.094c1.115,2.414,2.973,2.228,3.252,0.835c1.225-4.689,1.748-10.357,1.215-15.898L479.881,317.717
		L479.881,317.717z M384.327,330.915c-0.743,0.371-1.486,0.465-2.322,0.465c-1.857,0.186-1.393,2.879-0.186,2.415
		c0.836-0.187,1.671-0.558,2.507-1.021c1.393-0.837,2.415-2.044,2.229-3.53c-0.186-0.742-0.557-0.278-0.835,0.186
		C385.348,330.079,384.884,330.637,384.327,330.915L384.327,330.915z M371.139,331.008c-0.743-0.186-1.393-0.557-1.765-1.207
		c-0.372-0.836-0.929-0.372-0.929,0.186c0,1.765,1.115,3.157,2.694,3.809c0.371,0.185,0.743,0.278,1.208,0.37
		c1.578,0.279,2.229-2.879,0.093-2.971C372.067,331.194,371.604,331.194,371.139,331.008L371.139,331.008z M414.324,337.788
		c-0.092,0.093-0.186,0.093-0.279,0.186c-1.391,0.836-0.928,1.485,0.279,1.301c0.188,0,0.373-0.094,0.557-0.094
		c2.23-0.743,4.83-1.857,7.246-3.25c4.828-2.787,8.822-6.873,7.613-11.052c-0.186-0.465-0.092-1.486,0.279-1.765
		c0.744-0.743,1.209-1.394,1.486-2.136c0.279-0.465,0.465-1.021,0.557-1.673c0.094-0.649-0.186-0.928-0.557-0.836
		c-0.186,0.094-0.371,0.187-0.557,0.465c-0.93,1.114-2.322,2.879-4.086,4.272c-0.744,0.742-0.373,2.321-0.559,3.436
		c-0.277,1.951-1.949,3.994-4.178,5.944C419.805,334.537,416.832,336.395,414.324,337.788L414.324,337.788z M377.907,353.519
		c-0.186,0-0.372-0.186-0.464-0.371c-0.372-0.836-0.929-0.001-1.022,0.371c-0.144,0.577-0.743,0.929-1.3,0
		c-1.671-2.601-2.136-1.95-2.136-0.558c-0.093,1.394,0.093,3.344,1.3,3.157c0.443-0.086,0.222,0.512,0.65,0.465
		c0.372-0.093,0.279-0.465,0.65-0.465c0.464-0.092,0.474,1.422,1.95,0.929c0.521-0.173,1.3-0.929,2.043-0.929
		c0.929,0,1.672,1.487,2.601-0.186c0.65-0.928,0.928-2.6,0.278-3.621c-0.372-0.558-1.114,0.557-1.485,1.021
		c-0.65,0.836-0.464-0.372-0.929-0.186c-0.279,0.278-0.65-1.301-1.3,0C378.557,353.519,378.186,353.611,377.907,353.519
		L377.907,353.519z M385.151,348.41c-0.836,2.137-1.857,3.993-1.578,6.223c0.186,1.485,0.71,1.975,2.135,0.65
		c1.672-1.394,0.929-5.108,0.836-6.966c-0.092-1.021-0.836-1.394-1.3-0.093L385.151,348.41L385.151,348.41z M373.069,364.963
		c0.57,0.249,1.142,0.498,1.708,0.654c1.503,0.293,2.895,0.22,4.266-0.224c2.66-0.697,5.072-2.591,7.02-4.46
		c0.44-0.488,0.972-0.98,1.318-1.464c0.713-0.596,0.942-1.538,0.621-2.357c-0.215-0.547-0.346-1.284-1.752,0.277
		c-0.088,0.099-0.268,0.2-0.357,0.298c-1.577,1.85-4.169,3.846-7.024,4.367c-1.933,0.381-3.993,0.116-6.018-1.266
		c-0.289-0.171-0.581-0.435-0.874-0.698c-2.631-2.28-4.495-5.902-5.329-9.393c-0.263-1.475-0.893-1.069-0.996,0.518
		C365.529,355.965,368.95,362.668,373.069,364.963L373.069,364.963z M389.331,353.519c-0.093,0.093-0.093,0.186-0.186,0.278
		c-0.278,0.558-0.929,0.743-0.464,1.857c0,0.186,0.372,0.743,0.65,0.836c0.092,0,0.186,0,0.278-0.186
		c0.279-0.743,0.65-1.579,0.371-2.415C389.794,353.426,389.794,352.683,389.331,353.519L389.331,353.519z M371.963,355.469
		c0,0,0.13-0.517,0-0.836c-0.062-0.151-1.143-2.625-1.393-5.387c-0.186-0.929-0.65-2.322-1.301-0.371
		c-0.464,1.3-0.464,3.157-0.185,4.644c0.185,1.114,0.937,2.794,2.136,2.414C371.546,355.83,371.87,355.747,371.963,355.469
		L371.963,355.469z M458.719,358.87c0.557-1.021,1.113-2.137,1.764-3.251c0.186-0.649,1.115-1.95,1.857-0.836
		c0.836,1.022,0.836,2.601,0.742,3.901c-0.186,2.785-1.484,6.872-4.363,7.708c-0.559,0.186-1.209,0.186-1.857,0.093
		c-1.58-0.372-3.531-1.485-1.023-3.715C456.953,361.749,457.883,360.448,458.719,358.87L458.719,358.87z"/>
	<path d="M326.266,317.717c0.065-0.934,0.212-1.751,0.48-2.312c1.021-2.229,0.371-2.229-0.093-2.6
		c-1.208-0.929-2.415-1.022-2.508-2.694c-0.093-3.621,0.372-7.336,1.486-10.958c0.558-2.043-0.464-1.114-0.836-2.043
		c-2.135-6.315,1.858-13.188,5.573-19.875c-3.622-3.808-4.273-8.08-4.273-13.095c0.186-5.294,3.622-17.367,14.674-21.175
		c7.151-2.6,10.587,0,15.045,3.158c0.186,0.093,0.465,0.278,0.65,0.464c0.929,0.836,1.764,1.95,2.879,1.95
		c0.464,0,1.022-0.093,1.579-0.372c0.836-0.464,1.764-1.115,2.507-1.765c3.622-2.879,5.294-3.901,7.708-4.365
		c0.65-0.093,1.3-0.186,2.043-0.278c1.764-0.186,2.693-0.093,3.9,0.092c1.208,0.186,2.693,0.372,5.479,0.279
		c0.557-0.093,1.208-0.093,1.764-0.093c1.393-0.093,2.786-0.093,4.18-0.186c1.671-0.186,3.25-0.372,4.922-0.65
		c1.579-0.372,3.251-0.372,4.736-0.186c1.115,0.186,2.137,0.464,3.064,1.022c0.094,0,0.652,0.372,0.838,0.464
		c1.207,0.743,2.32,1.579,3.527,2.415c2.045,1.486,3.994,3.158,5.572,4.644c1.115-0.65,2.137-1.207,3.158-1.579
		c2.693-1.022,5.295-1.208,7.803-1.022c1.67,0.186,3.342,0.465,5.014,0.836c1.58,0.464,3.158,1.021,4.365,1.857
		c0.557,0.371,1.021,0.835,1.486,1.3c2.043,2.879,3.621,6.315,5.016,9.102c0.648,1.114,0.928,3.437,0.742,5.294
		c0.65,0.278,1.115,0.557,1.672,0.835c5.666,3.25,7.895,9.659,9.102,13.281c2.6,2.322,4.551,4.922,3.994,8.08
		c-0.188,1.3-0.65,1.579-1.209,0.557c-1.393-2.136-3.156-4.086-5.107-5.108c-0.557-0.186-0.836-0.835-1.021-1.672
		c-0.557-3.25-2.787-7.058-5.758-9.38c-0.65-0.558-1.301-0.929-2.043-1.3c-0.93,3.437-1.486,4.458-2.693,6.037
		c1.764,2.693,3.529,5.666,4.736,8.823c0.557,1.579,1.021,3.158,1.301,4.737c0.277,2.136,0.277,3.994-0.373,5.944
		c-0.277,0.65-0.277,1.208-0.186,1.95c1.021,0.743,1.486,1.672,2.229,2.415c0.744,0.464,0.93,0.558,1.209-0.743
		c0.465-2.322,0.465-4.736-0.279-7.151c-0.371-1.579-0.65-3.715,1.486-0.836c1.115,1.579,1.301,3.437,1.578,5.108
		c1.301,5.293,0,11.423-1.949,16.345c-0.186,0.557-0.186,1.394-0.094,1.857c0.043,0.715,0.037,1.587-0.051,2.586l-24.797,0.004
		c0.229-0.496,0.43-0.997,0.607-1.476c0.373-1.114-0.092-2.136-2.971-0.093c-0.732,0.575-1.434,1.091-2.139,1.564l-17.229,0.004
		c0.73-0.601,1.711-1.278,2.463-2.032c0.188-0.094,0.373-0.279,0.559-0.465c0.094-0.093,0.186-0.278,0.279-0.372
		c1.113-1.113,2.32-2.136,3.527-3.157c2.508-1.95,5.201-3.528,7.803-4.922c0.463-0.187,0.742-0.464,0.928-0.65
		c0.188-0.186,0.188-0.371,0-0.557c-0.465-0.557-2.229-0.65-2.971-0.464c-2.322,0.464-4.088,1.114-5.76,2.135
		c-1.207,0.744-1.664,1.093-2.871,2.207c0,0,0.184-2.312-0.656-4.25c-0.094-0.372-0.371-0.743-0.744-0.929
		c-0.086-0.022-1.672-1.393-3.158-2.786c-0.557-0.557-1.299-1.207-2.135-1.857c-1.3-0.929-2.415-0.836-1.486,1.021
		c0.743,1.485,1.95,3.715,2.879,5.108c0.186,0.278,0.465,0.558,0.742,0.835c0.836,0.559,2.043,0.744,3.064,0.465
		c0.445,1.658,0.1,3.66-0.594,4.469c-0.463,0.557-0.428,0.453-1.076,1.011c-0.559,0.65-1.021,1.115-1.395,1.021
		c-0.186,0-0.463-0.186-0.65-0.649c-0.277-0.558-0.277-1.115-1.207-1.672c-0.464,1.3-0.928,2.415-1.764,3.621
		c0.476,0.928,0.796,1.882,1.015,2.866l-9.429,0.003c0.422-0.91,1.472-1.239,2.377-1.568c0.186-0.093,0.278-0.186,0.464-0.279
		c1.672-0.742,1.115-2.135,0.094-3.063c-1.115-1.022,0.557-3.529,1.207-5.016c0.65-1.485,0.743-3.436,0.278-5.015
		c-0.836-2.879-0.743-3.622,0.464-5.665c0.743-1.3,1.208-2.508,0.65-3.715c-0.371-1.207-1.114-0.65-1.764-0.278
		c-0.835,0.372-1.393-0.464-1.393-0.929c0.092-1.579,0.929-2.507,1.3-4.179c0.279-0.836,0.093-2.322-0.836-2.508
		c-0.186-0.093-0.372-0.093-0.464-0.186c-1.486-0.929-2.322-3.715-2.322-5.758c0-1.486,0.928-2.414,2.322-2.136
		c1.207,0.464,1.486,1.95,3.808,1.208c2.043-0.558,3.993-1.394,5.85-2.322c1.021-0.464,2.043-1.021,3.064-1.486l0.559-0.278
		c0.094-0.093,0.186-0.093,0.279-0.186c1.207-0.464,1.764-0.743,3.527,0.093c0.373,0.186,0.744,0.372,1.209,0.65
		c2.693,1.486,5.758,3.622,7.521,4.272c0.279,0.093,0.465,0.093,0.65,0.186c1.301,0.186,1.115-2.322,0.65-3.714
		c-0.186-0.372-0.65-0.929-1.301-1.394c-1.578-1.3-4.365-2.693-5.943-3.158c-1.951-0.65-1.764-2.322-1.764-3.436
		c0-1.951,1.484-3.901,3.342-4.923c1.486,1.115,2.508,2.043,4.086,2.972c0.094,0.093,0.188,0.186,0.279,0.186
		c2.879,1.857,5.852,4.644,7.523,6.501c0.092,0.186,0.186,0.279,0.279,0.372c1.578,2.136,3.621,6.501,4.457,9.102
		c0.465,1.95,1.949,4.922,3.344,6.408c0.742,0.743,1.207,1.486,1.578,2.229c0.65,1.021,1.115,2.229,1.951,3.808
		c2.879-3.158,0.928-7.616-1.951-11.052c-0.742-0.929-1.672-1.858-2.508-2.601c-0.465-0.371-0.836-1.486-1.113-2.043
		c-1.115-3.25-2.23-6.872-3.623-7.894c-0.836-0.558-1.578-1.208-2.135-1.951c-0.373-0.464-0.744-0.928-0.93-1.393
		c-1.207-2.786-2.6-5.201-5.293-6.779c-2.229-1.393-0.094-3.529,2.693-2.415c1.484,0.558,2.6,1.672,3.529,2.972
		c0.742,1.114,1.299,2.321,1.855,3.529c0.93,1.393,1.766,3.344,3.066,2.508c1.484-1.021,1.949-3.9,2.043-5.572
		c0.092-0.836-0.094-2.786,1.949-1.579c0.279,0.186,0.373,0.465,0.465,0.836c0.186,0.465,0.279,0.929,0.744,1.579
		c1.207-1.765,0.648-5.294-0.744-7.708c-0.277-0.558-0.557-1.021-0.93-1.393c-2.32-2.693-4.549-3.529-8.449-3.529
		c-0.744,0-1.58,0.093-2.416,0.093c-2.229,0.092-3.9,0.835-5.387,1.764c-1.301,0.836-2.414,1.857-3.621,2.786
		c-1.301,0.744-2.602,0.65-4.365-1.3c-0.279-0.279-0.465-0.558-0.744-0.836c-1.207-1.393-2.414-2.507-3.527-3.436
		c-0.279-0.278-0.559-0.464-0.838-0.743c-1.021-0.743-2.043-1.394-3.064-1.765c-1.484-0.65-3.064-0.836-4.828-0.65
		c-1.394,0.186-3.065,0.372-4.83,0.464c-1.394,0.093-2.787,0.186-4.18,0.186c-0.836-0.093-1.671-0.093-2.507-0.279
		c-1.765-0.279-3.25-0.464-4.736-0.558c-2.136-0.092-4.086,0.093-5.944,0.465c-1.301,0.372-2.508,0.743-3.808,1.3
		c-1.114,0.557-3.808,2.601-6.408,4.55c-1.765,1.301-3.436,2.508-4.458,3.251c-0.186,0.186-0.279,0.278-0.465,0.371
		c-1.764,1.394-4.086,1.765-5.851,0.929c-0.929-0.279-0.371-1.022,0.557-1.393c2.879-1.208,2.508-2.787,1.672-3.994
		c-1.764-2.787-4.365-6.037-7.616-6.037c-4.272,0-9.008,2.693-11.237,6.222c-2.693,4.086-3.9,9.009-2.322,14.581
		c1.393-1.95,3.25-3.529,4.551-5.015c1.208-1.3,2.415-1.765,5.108-1.394c1.671,0.372,2.415,0.65,4.736,1.208
		c-2.415,2.415-4.551,0.371-6.408,2.693c-1.393,1.95-3.158,3.807-3.994,6.129c-0.835,2.136-0.092,3.343,1.579,4.644
		c0.558,0.464,0.279,0.836,0.093,1.115c-0.464,1.3-1.672,2.043-2.136,3.436c-2.136,4.551-4.55,7.245-2.786,10.588
		c0.279,0.464,0.65,0.464,0.836,0.093c1.3-2.136,5.573-5.758,9.38-5.108c-0.557,1.951-1.3,3.715-2.321,6.037
		c-0.743,1.858,0.186,2.229-1.114,3.065c-3.25,2.136-4.18,3.065-5.666,5.387c-0.557,0.929-0.093,1.765,0.929,1.857
		c2.879,0.372,2.786,1.393,2.415,5.758c0,1.021-0.372,2.879,1.765,2.136c2.136-0.649,3.25-0.372,3.9,0.836
		c0.929,2.043,1.765,3.9,2.787,5.758c0.928,1.301,0.743,1.857,2.507,1.672c-0.093-1.857,1.208-3.437,2.415-4.551
		c0.836-0.743,0.278-1.579-0.186-2.136c-0.743-1.301-1.393-2.693-1.579-4.087c0-0.557,0-0.743-0.743-0.743
		c-1.857,0-2.228,0.186-2.693,0.65c-1.486,1.207-4.086,0.372-1.95-2.507c1.021-1.115,1.393-0.743,1.486-1.579
		c0.278-1.3,0.186-1.95-0.929-2.507c-1.578-0.836-1.578-1.3-0.743-2.786c0.558-1.579,1.115-2.786,2.786-4.365
		c1.3-1.301-0.836-2.601,1.021-3.623c2.972-1.671,6.966-2.321,10.216-3.529c0.278-2.136,1.114-2.322,2.6-2.043
		c0.557,0.186,1.208,0.372,1.858,0.65c1.486,0.464,3.157,1.114,4.644,1.486c1.579,0.464,2.229-0.464,1.3-1.486
		c-1.579-1.765-3.715-1.951-5.758-4.18c-1.022-0.928-2.136-0.928-3.808,0.186c-0.279,0.093-0.558,0.279-0.836,0.464
		c-2.229,1.393-4.086,2.786-6.223,3.9c-1.021,0.558-1.951,1.393-2.972,1.115c-0.371-0.929-0.092-2.786,0.743-3.437
		c1.115-1.114,2.415-0.557,3.808-0.65c0.464-1.393,2.136-3.622,4.644-4.83c1.114-0.557,2.414-0.928,3.808-0.928h0.65
		c3.157,0.464,5.758,3.529,9.009,3.993c0.278,0.093,0.742,0,1.207-0.093c1.3-0.278,2.786-1.114,2.322-1.857
		c-0.65-1.115-1.394-2.043-2.322-2.786c-1.95-1.579-4.365-2.507-7.244-2.972c-1.114-0.093-2.136-0.186-2.972-0.186
		c-1.579,0-2.879,0.186-4.458,0.372c-0.465,0.093-1.021,0.186-1.579,0.279c-0.186-1.486,0.092-2.601,1.579-3.622
		c0.557-0.372,1.114-0.743,1.95-1.115c0.464-0.186,0.65-1.3-0.836-1.021l-1.114,0.279c-2.508,0.557-4.829,1.485-6.873,3.157
		c-2.229,1.95,1.393,3.529-1.208,5.758c-1.765,1.486-3.622,2.786-5.758,3.993c-1.579,1.115-2.508-1.114-1.579-2.322
		c1.208-1.671,2.693-5.201,2.508-6.037c-0.278-1.393-1.579-2.6,0-4.179c3.436-3.344,7.894-5.944,12.909-8.359
		c1.393-0.743,2.879-1.393,4.458-2.136c1.486-0.65,2.972-1.3,4.551-1.95c1.765-0.743,3.808-1.207,5.665-1.3
		c1.672-0.186,3.251-0.186,4.365,0c0.558,0.093,1.021,0.186,1.579,0.186c1.95,0.093,3.808-0.557,7.244-0.929
		c1.208-0.186,2.508-0.371,4.18-0.371c1.114-0.093,2.415-0.093,3.808-0.093c1.95,0,3.622,0.743,5.85,1.858
		c0.93,0.464,1.951,0.929,3.064,1.486c0.279,0.092,0.559,0.278,0.838,0.371l1.393,0.557c1.021,0.558,1.857,1.486,1.115,2.322
		c-0.65,0.743-1.58,1.393-2.508,1.857c-0.279,0.186-0.559,0.279-0.838,0.372c-0.369,0.186-0.834,0.278-1.113,0.278
		c-0.65,0-1.301-0.278-1.951-0.557c-1.95-1.022-4.178-2.972-7.893-3.157c-0.558-0.093-1.115,0-1.765,0.092
		c-1.3,0.093-2.693,0.372-4.18,0.743c-1.486,0.372-2.972,0.836-4.179,1.208c-1.208,0.278-1.208,2.693,0.928,3.436
		c1.579,0.743,2.322,1.3,3.25,1.95c2.229,1.393,2.229,0.743,3.901,0.372h0.278c1.021-0.186,2.043-0.558,3.157-0.558
		c1.208,0,1.765,0.836,1.393,2.229c-0.372,1.115-2.415,2.043-4.55,3.064c-1.579,0.836-3.158,1.672-4.18,2.601
		c-2.229,2.322-2.507,4.737-1.764,7.523c0.928,4.551,1.114,11.145-1.301,14.117c-0.835,1.021-3.622,0.557-3.529-1.579
		c0-2.507,1.022-6.408,0.093-8.73c-0.279,0-0.557,0.093-0.743,0.186c-0.836,0.279-1.393,0.836-1.857,0.743
		c-1.115-0.093-1.393,0.279-2.229,1.3l-1.857,2.136c-1.672,1.95-3.158,4.086-2.972,6.315c0.278,2.322,0.743,3.994,1.671,6.037
		c1.022,2.6-0.092,3.529-1.207,4.272c-1.857,1.3-2.879,5.943-2.414,9.009c0.093,1.207-1.021,2.043-1.579,1.393
		c-0.915-1.371-2.079,0.695-2.468,2.404h-3.949c0.273-0.084,0.447-0.069,0.712-0.175c0.279-0.279,0.835-0.929,0.371-1.394
		c-0.742-0.836-0.371-1.021-1.207-2.043c-0.186-0.279-0.464-0.558-0.743-0.65c-0.186,0-0.372,0-0.557,0.187
		c-0.279,0.185-0.836,0.742-1.022,1.021c-0.186,0.278-0.743,1.021-0.464,1.672c0.142,0.564,0.229,0.861,0.344,1.379L326.266,317.717
		L326.266,317.717z M450.539,317.717c-0.109-0.227-0.23-0.442-0.365-0.64c-0.279-0.371-0.094-1.3,0.277-1.672
		c3.902-4.829,4.273-12.63,4.088-18.574c0-1.114,1.393-1.671,2.043-0.186c2.137,6.408,2.229,13.188-0.465,20.711
		c-0.045,0.121-0.088,0.243-0.127,0.365L450.539,317.717L450.539,317.717z M476.426,317.717c-0.395-4.122-1.371-8.168-3.072-11.691
		c-0.465-1.114,0.836-1.765,1.578-0.928c2.785,3.157,4.271,6.037,4.922,12.351c0.01,0.09,0.018,0.18,0.027,0.27L476.426,317.717
		L476.426,317.717z M401.229,280.95c-0.648,0.558-1.391,1.022-1.113,1.394c0.092,0.279,0.65,0.279,1.113,0.279
		c0.373-0.093,0.652-0.093,0.838-0.093c1.672,0.186,2.6,0.372,3.527,0.65c0.93,0.279,1.766,0.65,2.973,1.394
		c0.93,0.557,2.414,0.928,3.158,0.278c0.742-0.557,0.65-1.114,0-1.672c-1.951-1.486-2.973-2.507-6.131-3.25
		c-0.648-0.092-1.393-0.186-2.229-0.278c-0.371-0.093-0.928,0.093-1.299,0.372c0,0.093-0.094,0.186-0.094,0.278
		C401.787,280.486,401.508,280.764,401.229,280.95L401.229,280.95z M402.066,288.565c-0.559,0.186-0.465,0.372,0,0.557
		c0.277,0.186,0.742,0.279,1.113,0.372c0.836,0.279,1.672,0.465,2.414,0.743c0.744,0.278,1.486,0.743,2.137,1.579
		c1.115,1.115,2.414-0.743,1.393-1.857c-0.928-0.929-2.229-1.486-3.529-1.765c-0.834-0.093-1.67-0.093-2.506,0.093
		C402.623,288.38,402.344,288.473,402.066,288.565L402.066,288.565z M422.127,283.736c-0.279-0.464-0.465-0.836-0.744-1.208
		c-0.836,0.929-1.764,2.043-2.785,2.786c1.113,1.579,1.393,3.436,1.857,5.108c0.648,0.372,1.207,0.743,1.672,1.114
		c1.113,0.929,1.67,2.136,2.135,3.901c1.115-0.836,2.043-1.486,0.744-4.179c-0.65-1.3-1.301-2.508-1.672-3.994
		C423.24,286.151,422.684,284.851,422.127,283.736L422.127,283.736z M405.594,300.732c-0.277,0.278-0.557,0.464-0.928,0.743
		c-1.672,1.3-0.65,2.601,0.928,2.508c0.279,0,0.65-0.093,1.023-0.186c2.32-0.835,4.828-1.208,7.707-1.208
		c0.836,0,1.766,0,2.693,0.093c0.465-1.3,1.395-1.857,1.951-2.136c1.021-0.65,1.393-1.207,0.277-2.321
		c-0.928-0.929-1.484-1.022-3.342-0.465c-0.465,0.093-1.023,0.279-1.58,0.465c-1.207,0.464-2.6,0.928-4.18,1.579
		c-0.928,0.464-0.836-0.279-0.277-1.115c1.857-2.786,0-3.436-1.021-2.693c-0.465,0.464-1.395,1.486-1.672,2.415
		C406.895,299.246,406.523,299.896,405.594,300.732L405.594,300.732z M355.559,289.309c-1.765-0.093-3.716,1.114-5.202,1.3
		c-0.372,0-0.928,0.465-1.021,0.743c-0.372,1.393-1.393,2.322-2.415,3.25c-0.929,0.836-0.65,1.393,0,1.579
		c1.207,0.557,2.508,1.114,3.529,1.95c0.557,0.371,1.207,0.557,1.857-0.186c0.093-0.093,0-0.557,0.836-0.836
		c0.65-0.464,0.836-0.929,0.464-1.208c-0.65-0.464-1.207-0.65-2.043-1.021c-0.372-0.186-0.558-0.743-0.186-1.208
		c1.207-1.021,1.95-1.764,3.808-2.786c0.093-0.093,0.278-0.186,0.372-0.279C356.116,290.145,356.116,289.401,355.559,289.309
		L355.559,289.309z M360.923,303.518c-0.65,0.557-1.301,1.114-2.044,1.579c-1.392,1.021-0.65,2.322-0.185,3.25
		c0.185,0.557,1.022,0.371,1.579-0.186c0.186-0.279,0.372-0.372,0.65-0.465c0.65-0.371,1.3-0.65,1.671-2.322
		c0.279-1.3,0.65-2.693,1.022-3.715C362.966,301.567,362.038,302.497,360.923,303.518L360.923,303.518z M358.427,291.816
		c-1.95,0.372-2.322,1.393-2.322,2.415c0,0.929,1.32,1.629,2.136,2.043c2.138,1.085,4.859,0.356,5.788-0.573
		c-0.092-1.288-0.276-2.82,0.552-4.292c-1.322,0.077-2.14-0.016-3.188,0.061c0.283,0.321,0.455,0.742,0.455,1.204
		c0,0.379-0.117,0.732-0.316,1.024c-0.036,0.058-0.078,0.113-0.127,0.166c-0.334,0.386-0.827,0.63-1.377,0.63
		c-1.005,0-1.82-0.815-1.82-1.82C358.208,292.364,358.291,292.071,358.427,291.816L358.427,291.816z M440.422,313.548
		c0.371-0.836,0.836-1.671,1.207-2.6c0.65-1.672,1.301-4.458-0.928-6.966l-0.279,1.486c-0.65,3.715-1.486,6.408-1.766,9.565
		c-0.371,1.857,1.301,0.835,1.395-0.187C440.143,314.477,440.236,314.013,440.422,313.548L440.422,313.548z M397.336,292.68
		c0-0.165,0.021-0.324,0.062-0.475c-0.676,0.035-1.199,0.122-2.031,0.261c0.185,1.022-0.123,2.906,0.701,3.45
		c2.698,1.781,6.069,0.831,7.1-1.778c0.26-0.658,0.186-1.208-0.277-1.579c-0.684-0.433-1.414-0.469-2.014-0.467
		c0.062,0.185,0.098,0.382,0.098,0.588c0,1.005-0.814,1.82-1.82,1.82C398.15,294.5,397.336,293.685,397.336,292.68L397.336,292.68z
		 M401.229,240.086c1.254,0.13,5.127-0.469,13.096-3.25c2.602-0.465,5.016-0.186,7.803,0.278c1.021,0.186,2.135,0.372,3.342,0.65
		c2.229,0.465,3.902,1.208,5.666,2.601c0.094,0.092,0.279,0.186,0.371,0.278c1.207,0.558,3.064,0.65,4.736,0
		c1.393-0.65,2.693-1.114,4.18-1.393c0.465,0,0.928-0.093,1.393-0.093c3.529-0.093,6.873,1.208,10.123,2.136
		c3.25,0.836,5.201,1.95,6.781,3.344c1.393,1.207,2.32,2.693,3.436,4.458c4.922,7.244,7.986,16.625,10.588,24.24
		c2.879-0.093,5.199,0.743,7.242,1.858c1.672,0.928,3.158,2.414,3.809,4.179c0.371,0.836-0.742,3.251-1.764,2.043
		c-1.301-1.765-2.322-2.229-3.994-2.879c-1.672-0.557-3.436-0.743-5.016-0.278c-0.277,0.093-0.928,0.186-0.277,0.836
		c1.207,0.743,1.949,2.043,2.693,3.157c1.021,1.765,1.764,3.901,2.414,5.851c0.928,2.972,1.207,6.13,1.393,9.288
		c0.094,1.486,0.279,2.879-0.277,3.808c-1.115,2.786-2.23-0.743-2.23-1.208c0.186-3.25,0.186-5.108-1.113-9.751
		c-0.836-3.344-3.344-7.801-6.316-10.216c-1.021-0.836-1.301-1.115-1.207-2.693c0.186-4.087-1.301-10.587-2.879-13.095
		c-2.414-3.808-3.9-7.801-5.666-11.609l-0.834-1.672c-1.951-3.343-5.016-5.943-8.639-7.151c-2.971-1.022-6.5-1.672-9.658-1.301
		c-1.207,0.093-2.414,0.372-3.529,0.743c-0.928,0.372-1.486,0.558,0.279,1.765c1.021,0.65,2.229,1.021,3.25,1.486
		c1.207,0.557,2.229,1.207,2.879,2.6c0.836,1.672,2.414,4.272,3.344,6.316c0.094,0.743,0.742,1.578,1.301,1.95
		c5.479,3.065,8.357,6.965,10.123,11.98c0.277,0.743,0.463,1.3,0.65,1.672c0.371,0.929,0.463,1.115,0.742,3.25
		c0.092,1.021,0.371,3.158,1.486,3.994c1.949,1.765,2.971,3.993,3.9,6.873c1.672,4.365,2.508,8.73,2.043,13.095
		c-0.186,1.764-0.279,3.157-1.115,5.293c-0.65,1.579-1.484,1.393-1.484-0.279c0-4.179-0.465-8.358-1.301-12.723
		c-0.744-2.879-2.229-5.943-4.271-8.266c-1.301-1.3-1.766-3.064-2.043-4.829c-1.115-8.916-4.83-12.724-11.146-16.624
		c-1.299-0.65-1.484-1.115-1.857-2.229c-0.279-1.393-1.207-3.901-3.25-6.501c-1.578-2.136-3.9-4.179-7.15-5.758
		c-0.65-0.372-1.209-0.743-1.766-1.3c-0.371-0.372-0.65-0.743-0.93-1.208c-1.021-1.115-2.6-1.858-3.992-2.229
		c-0.744-0.186-3.064-1.115-4.457-1.579c-0.465-0.186-0.836-0.186-1.023-0.278c-3.064-0.279-4.363-0.371-6.779,0.093
		c-0.371,0.093-0.742,0.186-1.207,0.279c-1.484,0.464-3.064,1.114-4.643,1.393c-1.115,0.186-2.609,0.378-2.881,0.372
		c-1.393,0.186-1.906,0.147-2.928-0.318C402.387,241.44,401.229,240.086,401.229,240.086L401.229,240.086z"/>
	<polygon points="329.052,224.802 332.599,222.499 325.328,211.302 334.144,215.844 334.219,215.794 333.648,205.828 
		340.952,217.074 344.525,214.754 333.087,197.142 329.238,199.642 330.004,209.303 321.438,204.707 317.615,207.19 
		329.052,224.802 	"/>
	<path fill-rule="evenodd" clip-rule="evenodd" d="M357.616,209.286c5.182-1.989,7.287-7.553,5.04-13.407l-0.129-0.336
		c-2.247-5.854-7.458-8.545-12.667-6.546c-5.181,1.989-7.298,7.526-5.04,13.407l0.129,0.336
		C347.196,208.594,352.407,211.285,357.616,209.286L357.616,209.286z M356.204,205.522c-2.717,1.043-5.641-0.63-7.124-4.496
		l-0.076-0.196c-1.483-3.865-0.476-7.016,2.269-8.069c2.717-1.043,5.613,0.641,7.097,4.506l0.075,0.196
		C359.928,201.329,358.92,204.479,356.204,205.522L356.204,205.522z"/>
	<polygon points="371.114,204.388 375.333,203.795 373.566,191.228 383.561,202.638 387.246,202.12 384.323,181.325 
		380.104,181.918 381.807,194.039 372.142,183.037 368.191,183.592 371.114,204.388 	"/>
	<polygon points="396.535,202.044 400.854,202.194 401.445,185.225 406.723,185.409 406.863,181.392 391.992,180.873 
		391.852,184.89 397.127,185.074 396.535,202.044 	"/>
	<path fill-rule="evenodd" clip-rule="evenodd" d="M406.303,202.321l4.301,0.836l2.371-4.184l7.098,1.379l0.662,4.774l4.416,0.858
		l-3.361-22.168l-4.064-0.791L406.303,202.321L406.303,202.321z M415.004,195.455l3.572-6.273l0.934,7.149L415.004,195.455
		L415.004,195.455z"/>
	<polygon points="428.961,207.324 432.852,209.057 438.014,197.464 440.443,212.437 443.842,213.95 452.383,194.766 448.49,193.032 
		443.514,204.214 441.146,189.763 437.502,188.14 428.961,207.324 	"/>
	<path fill-rule="evenodd" clip-rule="evenodd" d="M447.283,215.572l3.59,2.512l3.867-2.857l5.924,4.146l-1.338,4.63l3.686,2.581
		l5.945-21.619l-3.391-2.375L447.283,215.572L447.283,215.572z M458.025,212.838l5.814-4.277l-2.055,6.91L458.025,212.838
		L458.025,212.838z"/>
	<polygon points="268.036,306.268 268.188,310.614 276.493,310.325 276.774,318.39 280.762,318.25 280.48,310.186 285.187,310.021 
		285.508,319.195 289.495,319.057 289.023,305.535 268.036,306.268 	"/>
	<polygon points="269.533,325.901 270.214,330.198 290.955,326.913 290.275,322.616 269.533,325.901 	"/>
	<path d="M273.37,343.789c1.193,3.901,4.356,6.04,8.086,4.899l0.057-0.018c3.127-0.956,4.04-3.306,4.347-7.227
		c0.335-3.521,0.67-4.377,1.817-4.728l0.028-0.009c1.033-0.316,2.022,0.354,2.461,1.788c0.474,1.549,0.089,3.268-0.558,4.845
		l3.866,1.359c1.103-2.345,1.204-4.886,0.485-7.238c-1.184-3.873-4.39-5.842-7.89-4.771l-0.058,0.018
		c-3.442,1.053-4.115,3.674-4.405,7.652c-0.213,3.202-0.669,3.969-1.673,4.276l-0.029,0.009c-1.177,0.359-2.278-0.37-2.769-1.978
		c-0.614-2.008-0.024-3.977,0.74-5.685l-3.824-1.529C272.663,338.295,272.589,341.235,273.37,343.789L273.37,343.789z"/>
	<polygon points="278.167,356.997 280.074,360.907 287.759,357.159 290.784,363.36 283.099,367.109 285.006,371.019 303.88,361.812 
		301.974,357.903 294.397,361.599 291.373,355.396 298.949,351.701 297.042,347.792 278.167,356.997 	"/>
	<path d="M285.049,379.562c2.067,2.691,4.542,3.192,7.589,1.059l3.17-2.22l-2.667-3.81l-3.785,2.65l1.066,1.523
		c-1.216,1.035-2.681,1.035-4.131-0.513L285.049,379.562L285.049,379.562z"/>
	<polygon points="304.119,396.157 307.062,398.808 318.848,391.456 312.769,403.946 315.734,406.616 334.325,394.936 
		330.981,391.925 319.119,399.854 325.537,386.941 322.728,384.413 310.58,392.165 317.203,379.52 313.792,376.448 304.119,396.157 
			"/>
	<polygon points="326.175,413.577 329.864,415.883 340.993,398.074 337.303,395.769 326.175,413.577 	"/>
	<polygon points="335.626,419.287 347.263,424.714 348.95,421.098 341.255,417.51 348.444,402.093 344.501,400.255 335.626,419.287 
			"/>
	<path fill-rule="evenodd" clip-rule="evenodd" d="M353.325,427.144l6.549,1.755c5.882,1.576,10.773-1.492,12.365-7.433l0.07-0.261
		c1.592-5.94-1.118-11.015-7-12.591l-6.549-1.755L353.325,427.144L353.325,427.144z M364.263,412.402
		c3.188,0.854,4.755,3.697,3.676,7.725l-0.039,0.146c-1.08,4.027-3.851,5.677-7.038,4.822l-2.318-0.621l3.401-12.692
		L364.263,412.402L364.263,412.402z"/>
	<polygon points="375.663,432.479 388.407,434.045 388.893,430.085 380.466,429.05 382.539,412.166 378.222,411.637 
		375.663,432.479 	"/>
	<polygon points="394.252,433.847 398.602,433.771 398.234,412.773 393.886,412.85 394.252,433.847 	"/>
	<polygon points="405.299,433.644 409.607,433.039 408.451,424.81 416.441,423.687 415.887,419.735 407.895,420.858 407.24,416.194 
		416.33,414.916 415.775,410.966 402.377,412.849 405.299,433.644 	"/>
	<polygon points="424.838,430.466 437.891,426.476 436.742,422.717 427.82,425.445 426.451,420.969 434.197,418.602 
		433.049,414.843 425.303,417.211 423.979,412.879 432.785,410.187 431.637,406.428 418.699,410.384 424.838,430.466 	"/>
	<path fill-rule="evenodd" clip-rule="evenodd" d="M462.119,415.355l1.707-3.417l-3.818-1.382c0.117-1.643,0.029-3.412-0.236-5.254
		l-3.518,0.338c0.166,1.416,0.242,2.541,0.234,3.643l-3.672-1.429c1.531-2.187,2.121-4.4,0.812-6.762l-0.059-0.105
		c-1.381-2.492-4.32-3.401-7.207-1.802c-3.148,1.745-3.83,4.971-2.477,7.41l0.043,0.079c0.697,1.26,1.799,2.192,3.488,3.074
		c-1.471,2.359-1.762,4.681-0.482,6.99l0.043,0.078c1.762,3.175,5.348,3.828,8.521,2.068c1.969-1.091,3.084-2.669,3.754-4.55
		L462.119,415.355L462.119,415.355z M449.775,406.762c-1.248-0.578-1.939-1.086-2.391-1.899l-0.029-0.052
		c-0.553-0.998-0.33-2.081,0.613-2.604c0.893-0.495,1.887-0.188,2.439,0.81l0.027,0.052
		C451.047,404.17,450.801,405.335,449.775,406.762L449.775,406.762z M454.201,415.49c-1.365,0.757-2.803,0.388-3.545-0.95
		l-0.029-0.053c-0.51-0.918-0.602-2.137,0.096-3.415l5.287,2.112C455.625,414.221,455.041,415.024,454.201,415.49L454.201,415.49z"
		/>
	<path fill-rule="evenodd" clip-rule="evenodd" d="M476.387,404.525l3.182-2.966l-4.357-4.674l1.799-1.678
		c3.164-3.073,4.029-7.204,0.736-10.736l-0.041-0.044c-3.049-3.269-7.082-3.24-10.527-0.027l-5.111,4.767L476.387,404.525
		L476.387,404.525z M472.551,394.033l-4.623-4.958l1.732-1.617c1.689-1.575,3.43-1.557,4.924,0.045l0.02,0.022
		c1.33,1.426,1.371,3.316-0.275,4.851L472.551,394.033L472.551,394.033z"/>
	<path fill-rule="evenodd" clip-rule="evenodd" d="M489.727,391.914l2.635-3.498l-2.721-3.967l4.352-5.773l4.58,1.498l2.709-3.594
		l-21.398-6.697l-2.492,3.307L489.727,391.914L489.727,391.914z M487.369,381.084l-4.072-5.961l6.834,2.296L487.369,381.084
		L487.369,381.084z"/>
	<path fill-rule="evenodd" clip-rule="evenodd" d="M505.119,370.438l1.906-3.91l-6.201-3.024l1.197-2.454l7.898-0.453l2.184-4.476
		l-8.971,0.598c0.096-2.523-1.014-4.833-3.871-6.228l-0.109-0.053c-1.859-0.907-3.619-1.064-5.143-0.539
		c-1.766,0.607-3.24,2.058-4.307,4.242l-3.457,7.091L505.119,370.438L505.119,370.438z M497.373,361.819l-5.689-2.774l1.367-2.805
		c0.975-1.995,2.484-2.694,4.371-1.773l0.027,0.013c1.699,0.829,2.305,2.46,1.332,4.455L497.373,361.819L497.373,361.819z"/>
	<polygon points="514.604,349.937 515.875,345.776 509.965,343.97 508.182,341.386 517.98,338.892 519.471,334.015 505.76,337.508 
		499.301,328.161 497.801,333.067 504.457,342.286 495.793,339.637 494.521,343.797 514.604,349.937 	"/>
	<path d="M521.354,321.531c0.498-4.05-1.523-7.29-5.395-7.766l-0.059-0.007c-3.246-0.398-5.035,1.376-6.912,4.834
		c-1.736,3.081-2.391,3.726-3.582,3.58l-0.029-0.004c-1.072-0.132-1.703-1.146-1.521-2.635c0.199-1.608,1.248-3.021,2.48-4.199
		l-2.979-2.814c-1.961,1.694-3.088,3.974-3.387,6.415c-0.494,4.021,1.633,7.123,5.268,7.568l0.059,0.008
		c3.572,0.438,5.254-1.683,7.137-5.199c1.498-2.839,2.225-3.354,3.268-3.226l0.029,0.003c1.221,0.15,1.932,1.265,1.727,2.933
		c-0.256,2.084-1.596,3.643-2.99,4.893l2.873,2.952C519.766,326.838,521.027,324.182,521.354,321.531L521.354,321.531z"/>
</g>
</svg>
