<?xml version="1.0" encoding="UTF-8"?>
<svg id="Layer_2" data-name="Layer 2" xmlns="http://www.w3.org/2000/svg" viewBox="0 0 275.2 192.97">
  <defs>
    <style>
      .cls-1 {
        fill: none;
      }

      .cls-2 {
        fill: #fff;
      }

      .cls-3 {
        fill: #ffd686;
      }

      .cls-4 {
        fill: #febe10;
      }
    </style>
  </defs>
  <g id="Layer_1-2" data-name="Layer 1">
    <path class="cls-1" d="m154.38,89.27c4.92,0,6.35-1.46,6.35-6.5,0,0,.01-20.74.01-28.38,0-1.12-1.94-1.12-2.64,0-5.02,8.41-17.12,29.13-19.37,32.96-1.05,1.8-1.9.16-2.07-.14-2.39-4.1-14.33-24.47-19.26-32.81-.62-1.13-2.58-1.12-2.58-.01v28.37c0,4.92,1.54,6.5,6.33,6.5h.5v6.36s-.04,0-.07,0c5.56-.54,11.25-.83,17-.85,5.2,0,10.33.2,15.33.6v-6.12h.49Z"/>
    <path class="cls-2" d="m121.62,95.62v-6.36h-.5c-4.79,0-6.33-1.58-6.33-6.5v-28.37c0-1.1,1.97-1.12,2.58.01,4.93,8.34,16.87,28.71,19.26,32.81.17.3,1.02,1.94,2.07.14,2.25-3.83,14.35-24.55,19.37-32.96.71-1.12,2.65-1.12,2.64,0,0,7.63-.01,28.38-.01,28.38,0,5.05-1.42,6.5-6.35,6.5h-.49v6.12c10.75.87,20.93,2.69,30.14,5.32v-11.44h-.49c-4.8,0-6.19-1.46-6.19-6.5v-39.06c0-5.1,1.33-6.5,6.19-6.5h.49v-9.77h-27.87s-13.94,26.6-17.67,33.63c-.35.66-1.16.67-1.5.02-3.65-7.01-17.54-33.65-17.54-33.65h-27.99v9.77s.49,0,.49,0c4.85,0,6.17,1.4,6.17,6.5v39.06c0,5.05-1.38,6.5-6.17,6.5h-.5v12.15c9.18-2.78,19.39-4.75,30.1-5.79.03,0,.07,0,.07,0Z"/>
    <path class="cls-4" d="m208.41,111.06c-6.83-4.23-15.12-7.7-24.39-10.35-9.21-2.63-19.39-4.45-30.14-5.32-5-.4-10.13-.61-15.33-.6-5.75.01-11.44.31-17,.85-10.71,1.03-20.92,3-30.09,5.79-9.05,2.74-17.11,6.26-23.61,10.45-.3.2-.41.57-.28.9.13.33.48.51.83.44,21.27-4.93,44.92-7.42,70.3-7.42s49.29,2.35,69.18,6.63c.37.07.73-.14.85-.47.13-.29,0-.68-.31-.87Z"/>
    <path class="cls-4" d="m144.92,14.62c-.07.03-.2.1-.24.31,0,.01,0,.03,0,.04-.04,3.5-5.25,12.22-5.3,12.31,0,.01-4.39,8.21-4.39,8.21-3.89,6.97-1.6,12.18,2.34,19.34.05.08.13.14.23.14s.19-.05.23-.14l11.37-20.94c3.41-6.54.25-12.06-2.79-17.4l-.97-1.72s-.04-.06-.07-.08c-.1-.08-.26-.14-.41-.09Zm.29.36v.02s0,.01,0,.02h0s0-.03,0-.04Z"/>
    <path class="cls-3" d="m137.48,0c-.1,0-.18.05-.23.14l-11.37,20.93c-3.4,6.54-.25,12.06,2.79,17.4l.97,1.71s.04.06.06.08c.1.08.26.15.41.09.07-.03.2-.1.24-.31,0-.01,0-.03,0-.04.04-3.5,5.25-12.22,5.3-12.3,0-.01,4.39-8.21,4.39-8.21,3.89-6.96,1.6-12.18-2.34-19.34-.05-.08-.14-.14-.23-.14Zm-7.65,39.98s0-.01,0-.01c0,0,0-.01,0-.02h0s0,.03,0,.04h0Z"/>
    <path class="cls-2" d="m85.32,143.18c0,12.23-6.83,19.24-18.46,19.24s-18.46-7.01-18.46-19.24,6.83-19.18,18.46-19.18,18.46,6.95,18.46,19.18Zm-28.29-.06c0,9.53,3.59,14.56,9.83,14.56s9.83-4.97,9.83-14.56-3.48-14.62-9.83-14.62-9.83,5.03-9.83,14.62Z"/>
    <path class="cls-2" d="m99.86,124.84l12.7,27.13s.26.61.85.44c.51-.15.51-.73.51-.73l-.15-18.99c0-3.3-.72-4.68-3.84-4.68h-.72v-3.17c2.58.06,5.09.12,7.67.12s5.21-.06,7.85-.12v3.17h-.72c-3.06,0-3.84,1.38-3.84,4.68v28.88h-10.19l-12.86-25.85s-.24-.51-.77-.38c-.53.13-.56.68-.56.68l.23,17.65c0,3.3.72,4.73,3.83,4.73h.72v3.17c-2.58-.12-5.15-.12-7.73-.12s-5.15,0-7.79.12v-3.17h.72c3.06,0,3.9-1.44,3.9-4.73v-20.98c0-3.3-.84-4.68-3.9-4.68h-.72v-3.17h14.8Z"/>
    <path class="cls-2" d="m137.72,124.96h10.13c1.26,0,5.09-.12,11.51-.12v11.09h-3.96v-.96c0-4.73-1.32-5.69-5.75-5.69h-2.64v24.39c0,3.3.78,4.73,3.84,4.73h1.26v3.17c-3.06-.12-6.11-.12-9.11-.12s-6.11,0-9.17.12v-3.17h1.26c3.05,0,3.83-1.44,3.83-4.73v-24.39h-3.24c-4.02,0-5.4,1.08-5.4,5.09,0,.48,0,.96.06,1.56h-3.77v-11.09c6.23,0,9.95.12,11.15.12Z"/>
    <path class="cls-2" d="m227.83,124.96c-2.58,0-5.09-.06-7.67-.12v3.17h.72c3.12,0,3.84,1.38,3.84,4.68l.15,18.99s0,.58-.51.73c-.59.17-.85-.44-.85-.44l-12.7-27.13h-14.8v3.17h.72c3.05,0,3.89,1.38,3.89,4.68v20.98c0,3.3-.84,4.73-3.89,4.73h0c-2.88-.3-3.72-2.4-5.03-5.81l-10.61-27.75h-9.83l-11.09,27.93c-1.44,3.66-2.64,5.51-5.03,5.63v3.17c2.52-.12,5.09-.12,7.79-.12s5.45,0,8.27.12v-3.17c-3.18-.18-4.37-.48-4.37-2.64,0-.66.18-1.32.42-2.04l1.2-3.8h14.01s1.14,3.02,1.14,3.02c.42,1.32.6,2.22.6,2.76,0,1.98-1.32,2.58-4.55,2.7v3.17c1.31-.05,9.97-.17,15.44-.17s15.69.13,16.45.17v-3.17h-.72c-3.11,0-3.83-1.44-3.83-4.73l-.1-17.65s.03-.55.56-.68c.53-.13.77.38.77.38l12.73,25.85h10.19v-28.88c0-3.3.78-4.68,3.83-4.68h.72v-3.17c-2.64.06-5.22.12-7.85.12Zm-57.73,20.36l4.95-14.05s.15-.46.66-.46.66.45.66.45l4.59,14.11-10.86-.06Z"/>
    <path class="cls-2" d="m259.37,124.84l10.61,27.75c1.32,3.41,2.16,5.51,5.04,5.81v3.17c-2.82-.12-5.69-.12-8.51-.12s-5.69,0-8.57.12v-3.17c3.24-.12,4.55-.72,4.55-2.7,0-.54-.18-1.44-.6-2.76l-1.01-3.05h-14.09s-1.26,3.82-1.26,3.82c-.24.72-.42,1.38-.42,2.04,0,2.16,1.2,2.46,4.37,2.64v3.17c-2.82-.12-5.58-.12-8.27-.12s-5.27,0-7.79.12v-3.17c2.4-.12,3.59-1.98,5.03-5.63l11.09-27.93h9.83Zm-6.03,6.43l-5.04,14.1h10.91l-4.56-14.11s-.15-.45-.66-.45-.65.46-.65.46Z"/>
    <path class="cls-2" d="m24.38,155.88c-.52,0-.88-.7-.88-.7l-9.98-18.29s-.48-.91-.97-.91c-.62,0-.61.88-.61.88v16.81c0,3.3.78,4.73,3.84,4.73h.72v3.18c-2.46-.12-5.04-.12-7.67-.12s-5.27,0-8.03.12v-3.18h.72c3.12,0,3.77-1.44,3.84-4.73l.36-20.98v-.3c0-3.06-.9-4.38-3.89-4.38h-.72v-3.17c2.7.06,5.39.12,8.15.12s4.23-.06,6.92-.12l7.58,16.97s.15.43.65.43.63-.42.63-.42l8.15-17c2.34.06,3.69.12,6.32.12s5.39-.06,8.33-.12v3.17h-.78c-3,0-3.84,1.26-3.84,4.32v.36l.36,20.98c.06,3.3.66,4.73,3.84,4.73h.72v3.18c-2.76-.12-5.45-.12-8.09-.12s-5.21,0-7.79.12v-3.18h.78c3.06,0,3.84-1.44,3.84-4.73v-16.95s.07-.89-.6-.89c-.49,0-.95.89-.95.89l-10.05,18.44s-.35.72-.88.72Z"/>
    <path class="cls-2" d="m44.68,172.64l5.74,15.02c.71,1.85,1.17,2.98,2.72,3.15v1.72c-1.52-.07-3.08-.07-4.61-.07s-3.08,0-4.64.07v-1.72c1.75-.06,2.47-.39,2.47-1.46,0-.29-.1-.78-.33-1.49l-.71-2.11h-7.3l-.84,2.53c-.13.39-.23.75-.23,1.1,0,1.17.64,1.33,2.37,1.43v1.72c-1.53-.07-3.02-.07-4.48-.07s-2.85,0-4,.07v-1.72c1.09-.06,1.73-1.07,2.51-3.05l6-15.12h5.32Zm-3.26,3.48l-2.58,7.22h5.61l-2.32-7.22s-.08-.25-.36-.25-.35.25-.35.25Z"/>
    <path class="cls-2" d="m14.61,178.46h-2.24c.03-.23.03-.45.03-.65,0-2.46-1.48-3.56-4.16-3.56-2.33,0-3.78,1.19-3.78,2.91,0,1.39.78,2.16,2.49,2.84l4.1,1.65c2.81,1.13,4.2,2.84,4.2,5.23,0,3.75-2.81,5.91-8.05,5.91-2.29,0-4.68-.29-7.11-.84v-5.59h2.36c0,.16-.03.32-.03.45,0,2.55,1.55,3.85,4.56,3.85,2.42,0,3.75-1.07,3.75-3.01,0-1.39-.68-2.1-2.26-2.78l-3.78-1.62c-3.13-1.36-4.68-2.81-4.68-5.4,0-3.56,2.78-5.78,7.85-5.78,2.07,0,4.33.33,6.75.91v5.46Z"/>
    <path class="cls-2" d="m225.72,178.8h-2.19c.03-.22.03-.44.03-.64,0-2.42-1.45-3.5-4.08-3.5-2.28,0-3.7,1.18-3.7,2.87,0,1.37.76,2.14,2.44,2.8l4.01,1.62c2.75,1.11,4.12,2.8,4.12,5.16,0,3.7-2.75,5.83-7.88,5.83-2.25,0-4.59-.28-6.96-.83v-5.51h2.31c0,.16-.03.32-.03.44,0,2.52,1.52,3.79,4.46,3.79,2.38,0,3.67-1.05,3.67-2.97,0-1.36-.66-2.07-2.21-2.74l-3.7-1.6c-3.07-1.34-4.59-2.77-4.59-5.32,0-3.5,2.72-5.7,7.69-5.7,2.03,0,4.24.32,6.62.89v5.38Z"/>
    <path class="cls-2" d="m21.75,172.88h5.43c.67,0,2.73-.06,6.17-.06v5.63h-2.12c0,.13,0-.04,0-.2,0-2.54-.7-3.05-3.08-3.05h-1.42v13.08c0,1.77.42,2.54,2.06,2.54h.47v1.7c-1.43-.06-3.07-.06-4.68-.06s-3.28,0-4.92.06v-1.7h.68c1.64,0,2.06-.77,2.06-2.54v-13.08h-1.74c-2.16,0-2.89.58-2.89,2.74,0,.25,0,.51.03.52h-2.03v-5.63c3.34,0,5.34.06,5.98.06Z"/>
    <path class="cls-2" d="m56.58,172.88h5.43c.67,0,2.73-.06,6.17-.06v5.66h-2.12c0,.1,0-.07,0-.23,0-2.54-.71-3.05-3.08-3.05h-1.42v13.08c0,1.77.42,2.54,2.06,2.54h.68v1.7c-1.64-.06-3.28-.06-4.89-.06s-2.91,0-4.55.06v-1.7h.31c1.64,0,2.06-.77,2.06-2.54v-13.08h-1.74c-2.16,0-2.89.58-2.89,2.74,0,.25,0,.51.03.55h-2.02v-5.66c3.34,0,5.34.06,5.98.06Z"/>
    <path class="cls-2" d="m85.15,172.88v5.43h-1.83v-.87c0-1.86-1.06-2.25-3.44-2.25h-3.95v6.14h1.12c2.12,0,2.67-.38,2.7-2.57h1.74v7.14h-1.74c-.1-2.12-.58-2.51-2.57-2.51h-1.25v6.82h3.6c3.22,0,3.92-.42,3.99-3.86h1.8v6.17h-16.14v-1.7h.39c1.74,0,2.06-.84,2.06-2.54v-11.25c0-1.76-.42-2.51-2.06-2.51h-.39v-1.64h15.98Z"/>
    <path class="cls-2" d="m100.77,172.88c1.45,0,2.89-.03,4.27-.06v1.71h-.38c-1.77,0-2.09.64-2.09,2.51v8.65c0,3.08,1,4.53,4.02,4.53s4.14-1.48,4.14-4.6v-8.58c0-1.76-.41-2.51-2.06-2.51h-.38v-1.71c1.38.04,2.7.06,4.02.06s2.64-.03,3.92-.06v1.71h-.49c-1.16,0-1.61.8-1.61,2.51v8.3c0,5.27-2.22,7.65-7.88,7.65-5.31,0-7.91-2.28-7.91-6.85v-9.1c0-1.67-.29-2.51-1.57-2.51h-.38v-1.71c1.48.04,2.96.06,4.37.06Z"/>
    <path class="cls-2" d="m145.45,172.88c1.51,0,3.05-.03,4.6-.06v1.71h-.42c-1.63,0-2.06.74-2.06,2.51v11.25c0,1.77.42,2.54,2.06,2.54h.42v1.7c-1.54-.06-3.08-.06-4.6-.06s-3.09,0-4.63.06v-1.7h.38c1.64,0,2.06-.77,2.06-2.54v-11.25c0-1.76-.42-2.51-2.06-2.51h-.38v-1.71c1.54.04,3.08.06,4.63.06Z"/>
    <path class="cls-2" d="m171.58,172.83v-.06c-1.16.03-2.41.06-3.73.06s-2.77-.03-4.31-.06v1.7c1.58,0,2.32.32,2.32,1.16,0,.22-.03.51-.13.83l-3.8,11.46s-.11.25-.35.25-.37-.25-.37-.25l-3.97-11.51c-.13-.35-.19-.64-.19-.87,0-.9.68-1,2.32-1.06v-1.7c-1.77.03-3.38.06-4.76.06s-2.57-.03-3.57-.06v1.7c1.1.1,1.54.77,2.06,2.18l5.98,16.14h4.66l5.79-16.27c.41-1.22.9-1.83,2.06-2.06v-1.64Z"/>
    <path class="cls-2" d="m199.56,172.82c5.62,0,8.26,1.42,8.26,5.31,0,2.41-1.22,3.99-3.47,4.53,1.83.26,2.28,1.19,2.83,3.21.52,2,.74,3.44,1.32,4.12.34.41.77.65,1.3.77,0-.04,0,1.78,0,1.78h-5c-1.19-2.73-1.28-5.21-1.9-6.91-.45-1.29-1.44-1.8-3.21-1.8h-1.54v4.47c0,1.77.42,2.54,2.06,2.54h.42v1.7c-1.54-.06-3.09-.06-4.6-.06s-3.09,0-4.63.06v-1.7h.38c1.64,0,2.06-.77,2.06-2.54v-11.25c0-1.76-.42-2.51-2.06-2.51h-.38v-1.71h8.17Zm-1.42,8.91h1.48c2.8,0,4.08-.84,4.08-3.19s-1.22-3.34-3.92-3.34h-1.64v6.53Z"/>
    <path class="cls-2" d="m232.62,172.88c1.51,0,3.05-.03,4.6-.06v1.71h-.42c-1.64,0-2.06.74-2.06,2.51v11.25c0,1.77.42,2.54,2.06,2.54h.42v1.7c-1.54-.06-3.09-.06-4.6-.06s-3.09,0-4.63.06v-1.7h.38c1.64,0,2.06-.77,2.06-2.54v-11.25c0-1.76-.42-2.51-2.06-2.51h-.38v-1.71c1.54.04,3.08.06,4.63.06Z"/>
    <path class="cls-2" d="m244.39,172.88h5.43c.68,0,2.74-.06,6.18-.06v5.61h-2.12c0,.15,0-.01,0-.18,0-2.54-.71-3.05-3.08-3.05h-1.42v13.08c0,1.77.42,2.54,2.06,2.54h.67v1.7c-1.64-.06-3.28-.06-4.88-.06s-3.28,0-4.92.06v-1.7h.68c1.64,0,2.06-.77,2.06-2.54v-13.08h-1.73c-2.15,0-2.89.58-2.89,2.74,0,.25,0,.51.03.49h-2.02v-5.61c3.34,0,5.33.06,5.98.06Z"/>
    <path class="cls-2" d="m260.55,172.88c1.38,0,2.83-.03,4.27-.06v1.71h-.16c-1.03,0-1.48.29-1.48.93,0,.32.16.71.39,1.16l2.16,4.37s.14.25.36.25.36-.24.36-.24l2.15-4.22c.23-.45.35-.9.35-1.22,0-.74-.48-1.03-1.58-1.03v-1.71c1.38.04,2.7.06,4.02.06s2.57-.03,3.83-.06v1.71h-.13c-1.03,0-1.64.74-2.51,2.15l-4.79,7.84v3.99c0,1.71.32,2.32,2.19,2.32h.45v1.7c-1.51-.06-3.06-.06-4.63-.06s-3.12,0-4.7.06v-1.7h.45c1.83,0,2.19-.61,2.19-2.32v-4.05l-4.5-7.81c-.77-1.32-1.41-2.06-2.73-2.12v-1.71c1.32.04,2.67.06,4.05.06Z"/>
    <path class="cls-2" d="m125.51,172.85l6.88,14.68s.14.33.46.24c.27-.08.27-.39.27-.39l-.08-10.28c0-1.78-.39-2.53-2.07-2.53h-.39v-1.72c1.4.03,2.76.06,4.16.06s2.82-.04,4.25-.06v1.72h-.39c-1.65,0-2.07.74-2.07,2.53v15.64h-5.52l-6.89-14.66s-.13-.28-.42-.21c-.29.07-.3.37-.3.37l.05,10.22c0,1.78.39,2.56,2.07,2.56h.39v1.72c-1.39-.06-2.79-.06-4.18-.06s-2.79,0-4.22.06v-1.72h.39c1.66,0,2.11-.78,2.11-2.56v-11.36c0-1.78-.45-2.53-2.11-2.53h-.39v-1.72h8.01Z"/>
    <path class="cls-2" d="m188.48,172.88v5.43h-1.83v-.87c0-1.86-1.06-2.25-3.44-2.25h-3.95v6.14h1.12c2.12,0,2.67-.38,2.7-2.57h1.74v7.14h-1.74c-.1-2.12-.58-2.51-2.57-2.51h-1.25v6.82h3.6c3.22,0,3.92-.42,3.99-3.86h1.8v6.17h-16.14v-1.7h.38c1.74,0,2.06-.84,2.06-2.54v-11.25c0-1.76-.42-2.51-2.06-2.51h-.38v-1.64h15.98Z"/>
  </g>
</svg>