<?xml version="1.0" encoding="UTF-8"?>
<svg id="Layer_2" data-name="Layer 2" xmlns="http://www.w3.org/2000/svg" viewBox="0 0 216.6 35.97">
  <defs>
    <style>
      .cls-1 {
        fill: #fff;
      }

      .cls-2 {
        fill: #45479d;
      }
    </style>
  </defs>
  <g id="Layer_1-2" data-name="Layer 1">
    <path class="cls-1" d="M166.18,17.98c0,9.93-8.05,17.98-17.98,17.98s-17.98-8.05-17.98-17.98S138.26,0,148.19,0s17.98,8.05,17.98,17.98"/>
    <g>
      <path class="cls-1" d="M211.23,15.98c-1.97-1.02-3.56-1.85-3.56-3.43,0-1.12,.95-1.81,2.56-1.81,1.91,0,3.6,.62,4.9,1.39v-4.06c-1.36-.59-3.23-1.08-4.9-1.08-4.75,0-6.87,2.83-6.87,5.88,0,3.59,2.42,5.31,5.08,6.72,2.63,1.39,3.62,1.99,3.62,3.49,0,1.27-1.1,2-2.95,2-2.56,0-4.38-1.18-5.56-2.13v4.32c1.11,.77,3.48,1.7,5.53,1.7,4.61,0,7.51-2.4,7.51-6.27s-3.41-5.7-5.38-6.72Z"/>
      <path class="cls-1" d="M176.11,7.19h-5.69V28.77h4.25v-6.86h.86c5.32,0,8.62-2.83,8.62-7.38s-3-7.34-8.03-7.34Zm-1.44,3.6h1.25c2.49,0,4.1,1.44,4.1,3.67,0,2.42-1.48,3.8-4.07,3.8h-1.28v-7.48Z"/>
      <path class="cls-1" d="M197.7,17.15c1.44-1.01,2.14-2.46,2.14-4.44,0-3.41-2.5-5.52-6.53-5.52h-6.59V28.77h6.88c5.27,0,7.68-3.39,7.68-6.53,0-2.49-1.36-4.41-3.57-5.09Zm-4.7-6.32c1.66,0,2.74,1.04,2.74,2.64s-1.16,2.67-2.96,2.67h-1.81v-5.31h2.04Zm-2.04,14.34v-5.63h2.69c2.14,0,3.42,1.05,3.42,2.8,0,1.88-1.28,2.83-3.81,2.83h-2.3Z"/>
    </g>
    <g>
      <path class="cls-2" d="M161.29,18.16l-2,.41v3.69c0,1.24-1.02,2.23-2.34,2.23h-1.02v4.29h-3.28v-4.29h1.02c1.32,0,2.34-.99,2.34-2.23v-3.69l2-.41c.43-.09,.66-.57,.46-.96l-5.23-10.01h3.28l5.23,10.01c.2,.39-.02,.87-.46,.96Z"/>
      <path class="cls-2" d="M154.56,17.2l-5.23-10.01h-5.42c-4.93,0-9.11,4.03-8.99,8.96,.09,3.68,2.46,6.43,5.75,7.47v5.16h8.08v-4.29h1.02c1.32,0,2.34-.99,2.34-2.23v-3.69l2-.41c.43-.09,.66-.57,.46-.96Zm-6.81-.57c-1.14,0-2.06-.92-2.06-2.06s.92-2.06,2.06-2.06,2.06,.92,2.06,2.06-.92,2.06-2.06,2.06Z"/>
    </g>
    <g>
      <polygon class="cls-1" points="10.89 19.2 3.48 7.18 0 7.18 0 28.82 3.62 28.82 3.62 14.12 10.26 24.63 11.25 24.63 17.83 14.22 17.83 28.82 21.49 28.82 21.49 7.18 18.29 7.18 10.89 19.2"/>
      <path class="cls-1" d="M37.11,13.42c-1.21-.67-2.59-1-4.11-1s-2.97,.33-4.19,.99c-1.22,.66-2.19,1.63-2.89,2.89-.7,1.26-1.05,2.77-1.05,4.51s.35,3.22,1.04,4.47c.69,1.26,1.65,2.23,2.87,2.9,1.22,.67,2.59,1,4.09,1s2.95-.35,4.17-1.04c1.23-.69,2.2-1.68,2.9-2.96,.7-1.28,1.05-2.82,1.05-4.57,0-1.63-.35-3.08-1.04-4.32-.69-1.24-1.65-2.2-2.85-2.87Zm-4.17,12.54c-1.21,0-2.22-.46-3-1.37-.78-.91-1.18-2.2-1.18-3.83s.4-2.96,1.18-3.83c.78-.87,1.8-1.31,3.04-1.31s2.27,.44,3.02,1.32c.75,.88,1.13,2.13,1.13,3.72,0,1.7-.4,3.02-1.18,3.93-.78,.91-1.79,1.37-3,1.37Z"/>
      <path class="cls-1" d="M56.8,13.88c-1.01-.97-2.39-1.47-4.1-1.47-1.06,0-1.99,.16-2.77,.48-.77,.31-1.51,.75-2.22,1.3l-.31-1.43h-3.17V28.82h3.69v-11.41c.52-.5,1.09-.92,1.69-1.25,.61-.33,1.32-.5,2.11-.5,.98,0,1.72,.27,2.19,.81,.48,.54,.72,1.3,.72,2.26v10.09h3.69v-10.79c0-1.78-.51-3.17-1.52-4.15h0Z"/>
      <path class="cls-1" d="M66.69,8.21l-3.69,1.1v3.45h-2.32v2.89h2.32v8.66c0,1.48,.4,2.68,1.2,3.55,.8,.87,2.05,1.31,3.72,1.31,.57,0,1.13-.04,1.67-.13,.54-.08,.97-.19,1.29-.32h.02v-3.1l-.05,.02c-.63,.21-1.3,.32-1.99,.32-1.47,0-2.19-.76-2.19-2.31v-7.99h4.31v-2.89h-4.31v-4.55Z"/>
      <path class="cls-1" d="M79.67,12.41c-1.9,0-3.76,.34-5.53,1.02h-.02v3.39l.05-.02c.78-.38,1.61-.68,2.48-.89,.87-.21,1.73-.32,2.55-.32,1.38,0,2.31,.31,2.76,.92,.46,.62,.69,1.49,.69,2.6v.11c-.83-.18-1.74-.28-2.69-.28-2.09,0-3.83,.42-5.16,1.24-1.34,.83-2.02,2.17-2.02,4,0,1.53,.48,2.75,1.42,3.64,.94,.89,2.23,1.34,3.82,1.34,1.02,0,1.96-.18,2.82-.53,.84-.34,1.55-.76,2.11-1.25l.44,1.43h2.95v-10.06c0-2.03-.56-3.61-1.68-4.7-1.11-1.09-2.79-1.64-4.99-1.64Zm2.98,9.42v2.9c-1.21,.85-2.47,1.28-3.74,1.28-.73,0-1.3-.19-1.71-.56-.4-.37-.61-.84-.61-1.4,0-.89,.38-1.52,1.14-1.87,.76-.36,1.7-.54,2.79-.54,.76,0,1.48,.06,2.12,.18Z"/>
      <path class="cls-1" d="M103.09,13.88c-1.01-.97-2.39-1.47-4.1-1.47-1.06,0-1.99,.16-2.77,.48-.77,.31-1.51,.75-2.22,1.3l-.31-1.43h-3.17V28.82h3.69v-11.41c.52-.5,1.09-.92,1.69-1.25,.61-.33,1.32-.5,2.11-.5,.98,0,1.72,.27,2.19,.81,.48,.54,.72,1.3,.72,2.26v10.09h3.69v-10.79c0-1.78-.51-3.17-1.52-4.15h0Z"/>
      <path class="cls-1" d="M119.81,14.06c-1.11-1.09-2.79-1.64-4.99-1.64-1.9,0-3.76,.34-5.53,1.02h-.02v3.39l.05-.02c.78-.38,1.61-.68,2.48-.89,.87-.21,1.73-.32,2.55-.32,1.38,0,2.31,.31,2.76,.92,.46,.62,.69,1.49,.69,2.6v.11c-.83-.18-1.74-.28-2.69-.28-2.09,0-3.83,.42-5.16,1.24-1.34,.83-2.02,2.17-2.02,4,0,1.53,.48,2.75,1.42,3.64,.94,.89,2.23,1.34,3.82,1.34,1.01,0,1.96-.18,2.82-.53,.84-.34,1.55-.76,2.11-1.25l.44,1.43h2.95v-10.06c0-2.03-.56-3.61-1.68-4.7Zm-2.01,7.78v2.9c-1.21,.85-2.47,1.28-3.74,1.28-.73,0-1.3-.19-1.71-.56-.4-.37-.61-.84-.61-1.4,0-.89,.38-1.52,1.14-1.87,.76-.36,1.7-.54,2.79-.54,.76,0,1.48,.06,2.12,.18Z"/>
    </g>
  </g>
</svg>